<svg width="1600" height="900" xmlns="http://www.w3.org/2000/svg" xmlns:xlink="http://www.w3.org/1999/xlink" overflow="hidden"><g><rect x="0" y="0" width="1600" height="900" fill="#FAFAFA"/><rect x="727" y="157" width="146" height="6" fill="#6187D3"/><path d="M904.271 346C995.249 346 1069 419.649 1069 510.5 1069 601.351 995.249 675 904.271 675 870.155 675 838.461 664.643 812.17 646.906L800 637.818 800.511 637.436C837.122 607.265 860.457 561.604 860.457 510.5 860.457 459.397 837.122 413.736 800.511 383.564L800 383.182 812.17 374.094C838.461 356.357 870.155 346 904.271 346Z" fill="#76CFF5" fill-rule="evenodd"/><path d="M695.729 346C729.845 346 761.539 356.357 787.83 374.094L800 383.182 799.489 383.564C762.878 413.735 739.543 459.396 739.543 510.5 739.543 561.604 762.878 607.264 799.489 637.436L800 637.818 787.83 646.906C761.539 664.643 729.845 675 695.729 675 604.751 675 531 601.351 531 510.5 531 419.649 604.751 346 695.729 346Z" fill="#6187D3" fill-rule="evenodd"/><path d="M670.994 516.104 644.946 508 639.794 530.891 636.788 512.692 638.076 511.412 640.509 508.711 630.634 508.711 632.924 511.412 634.355 512.692 631.206 530.891 626.197 508 599.862 516.104 597 538 674 538 670.994 516.104ZM662.693 530.18 649.383 530.18 649.383 526.341 655.967 525.346 662.693 526.341 662.693 530.18Z" fill="#B2FFFF" fill-rule="evenodd"/><path d="M618 484.5C618 473.73 625.835 465 635.5 465 645.165 465 653 473.73 653 484.5 653 495.27 645.165 504 635.5 504 625.835 504 618 495.27 618 484.5Z" fill="#B2FFFF" fill-rule="evenodd"/><path d="M931 492.273C931 524.727 931 524.727 931 524.727 931 529.364 936 534 941 534 941 483 941 483 941 483 936 483 931 487.636 931 492.273Z" fill="#B2FFFF" fill-rule="evenodd"/><path d="M982.6 473.643C982.6 471.321 980.25 469 977.9 469 959.1 469 959.1 469 959.1 469 956.75 469 954.4 471.321 954.4 473.643 954.4 482.929 954.4 482.929 954.4 482.929 945 482.929 945 482.929 945 482.929 945 534 945 534 945 534 992 534 992 534 992 534 992 482.929 992 482.929 992 482.929 982.6 482.929 982.6 482.929 982.6 482.929L982.6 473.643ZM977.9 482.929C959.1 482.929 959.1 482.929 959.1 482.929 959.1 473.643 959.1 473.643 959.1 473.643 977.9 473.643 977.9 473.643 977.9 473.643L977.9 482.929Z" fill="#B2FFFF" fill-rule="evenodd"/><path d="M997 483C997 534 997 534 997 534 1001.5 534 1006 529.364 1006 524.727 1006 492.273 1006 492.273 1006 492.273 1006 487.636 1001.5 483 997 483Z" fill="#B2FFFF" fill-rule="evenodd"/><path d="M819.901 484.298C803.972 500.271 803.972 500.271 803.972 500.271 801.93 501.91 799.07 501.91 797.028 500.271 781.099 484.298 781.099 484.298 781.099 484.298 776.606 479.383 776.606 472.011 781.099 467.505 786 463 793.352 463 797.845 467.505 800.296 469.963 800.296 469.963 800.296 469.963 803.155 467.505 803.155 467.505 803.155 467.505 807.648 463 815 463 819.901 467.505 824.394 472.011 824.394 479.383 819.901 484.298M786.817 504.367C785.183 501.91 779.873 498.223 779.056 497.404 777.831 496.585 773.338 491.67 772.113 492.08 771.296 492.489 768.845 495.356 770.07 499.862 770.479 501.5 772.93 503.548 775.789 506.415 777.831 508.463 777.423 510.92 777.423 510.92 777.423 510.92 776.197 509.282 774.155 507.234 772.113 505.596 769.254 502.319 768.845 501.09 768.028 499.043 767.62 495.766 768.028 490.851 768.845 485.527 770.479 483.069 770.07 478.154 769.662 474.059 765.169 471.191 764.761 473.239 763.944 474.878 759.451 485.117 759.042 487.574 758.225 489.622 757.408 501.5 757 504.367 757 506.824 759.042 510.101 761.901 513.787 764.761 517.883 772.113 528.122 772.521 531.399 772.521 540 772.521 540 772.521 540 793.352 540 793.352 540 793.352 540 793.352 532.628 793.352 532.628 793.352 532.628 793.352 530.58 793.761 529.351 793.761 527.303 793.761 524.846 792.535 524.846 792.535 517.473 792.535 513.378 788.859 507.234 786.817 504.367M841.958 487.574C841.549 485.117 837.056 474.878 836.239 473.239 835.831 471.191 831.338 474.059 830.93 478.154 830.521 483.069 832.155 485.527 832.972 490.851 833.38 495.766 832.972 499.043 832.155 501.09 831.746 502.319 828.887 505.596 826.845 507.234 824.803 509.282 823.577 510.92 823.577 510.92 823.577 510.92 823.169 508.463 825.211 506.415 828.07 503.548 830.113 501.5 830.93 499.862 831.746 495.356 829.704 492.489 828.479 492.08 827.662 491.67 823.169 496.585 821.944 497.404 820.718 498.223 815.817 501.91 814.183 504.367 812.141 507.234 808.056 513.378 808.056 517.473 808.056 524.846 806.831 524.846 806.831 527.303 806.831 529.351 807.648 530.58 807.648 532.628 807.648 540 807.648 540 807.648 540 828.479 540 828.479 540 828.479 540 828.479 531.399 828.479 531.399 828.479 531.399 828.887 528.122 835.831 517.883 839.099 513.787 841.958 510.101 844 506.824 844 504.367 843.592 501.5 842.775 489.622 841.958 487.574" fill="#76CFF5" fill-rule="evenodd"/><rect x="84" y="279" width="426" height="460" fill="#DFE7F6" fill-opacity="0.85098"/><rect x="84" y="279" width="426" height="53" fill="#6187D3"/><text fill="#B2FFFF" font-family="Microsoft YaHei,Microsoft YaHei_MSFontService,Arial" font-weight="400" font-size="23.3333" transform="translate(277.52 312)">原理</text><text fill="#3A3838" fill-opacity="0.701961" font-family="Microsoft YaHei,Microsoft YaHei_MSFontService,Arial" font-weight="400" font-size="23.3333" transform="translate(151.666 391)">风能和水能具有天然的时间互</text><text fill="#3A3838" fill-opacity="0.701961" font-family="Microsoft YaHei,Microsoft YaHei_MSFontService,Arial" font-weight="400" font-size="23.3333" transform="translate(151.666 425)">补性。雨季（</text><text fill="#3A3838" fill-opacity="0.701961" font-family="Calibri,Calibri_MSFontService,Arial" font-weight="400" font-size="23.3333" transform="translate(291.666 425)">5</text><text fill="#3A3838" fill-opacity="0.701961" font-family="Calibri,Calibri_MSFontService,Arial" font-weight="400" font-size="23.3333" transform="translate(303.541 425)">-</text><text fill="#3A3838" fill-opacity="0.701961" font-family="Calibri,Calibri_MSFontService,Arial" font-weight="400" font-size="23.3333" transform="translate(310.625 425)">10</text><text fill="#3A3838" fill-opacity="0.701961" font-family="Microsoft YaHei,Microsoft YaHei_MSFontService,Arial" font-weight="400" font-size="23.3333" transform="translate(334.375 425)">月）水电大</text><text fill="#3A3838" fill-opacity="0.701961" font-family="Microsoft YaHei,Microsoft YaHei_MSFontService,Arial" font-weight="400" font-size="23.3333" transform="translate(151.666 458)">发而风电较弱；干季（</text><text fill="#3A3838" fill-opacity="0.701961" font-family="Calibri,Calibri_MSFontService,Arial" font-weight="400" font-size="23.3333" transform="translate(385 458)">11</text><text fill="#3A3838" fill-opacity="0.701961" font-family="Calibri,Calibri_MSFontService,Arial" font-weight="400" font-size="23.3333" transform="translate(408.75 458)">-</text><text fill="#3A3838" fill-opacity="0.701961" font-family="Calibri,Calibri_MSFontService,Arial" font-weight="400" font-size="23.3333" transform="translate(415.833 458)">4</text><text fill="#3A3838" fill-opacity="0.701961" font-family="Microsoft YaHei,Microsoft YaHei_MSFontService,Arial" font-weight="400" font-size="23.3333" transform="translate(427.708 458)">月）</text><text fill="#3A3838" fill-opacity="0.701961" font-family="Microsoft YaHei,Microsoft YaHei_MSFontService,Arial" font-weight="400" font-size="23.3333" transform="translate(151.666 492)">风电强劲而水电不足。</text><text fill="#6C6969" font-family="Microsoft YaHei,Microsoft YaHei_MSFontService,Arial" font-weight="700" font-size="46.6667" transform="translate(460.75 128)">系统级整合：风水互补</text><rect x="1107" y="279" width="426" height="460" fill="#DFE7F6" fill-opacity="0.85098"/><rect x="1107" y="279" width="426" height="53" fill="#76CFF5"/><text fill="#B2FFFF" font-family="Microsoft YaHei,Microsoft YaHei_MSFontService,Arial" font-weight="400" font-size="23.3333" transform="translate(1272.95 312)">利用方法</text><text fill="#3A3838" fill-opacity="0.701961" font-family="Wingdings,Wingdings_MSFontService,Arial" font-weight="400" font-size="23.3333" transform="translate(1165.53 377)"></text><text fill="#3A3838" fill-opacity="0.701961" font-family="Microsoft YaHei,Microsoft YaHei_MSFontService,Arial" font-weight="400" font-size="23.3333" transform="translate(1203.03 377)">共建送出通道：在水电站</text><text fill="#3A3838" fill-opacity="0.701961" font-family="Microsoft YaHei,Microsoft YaHei_MSFontService,Arial" font-weight="400" font-size="23.3333" transform="translate(1203.03 411)">附近建设风电场，共享水</text><text fill="#3A3838" fill-opacity="0.701961" font-family="Microsoft YaHei,Microsoft YaHei_MSFontService,Arial" font-weight="400" font-size="23.3333" transform="translate(1203.03 444)">电站已有的高压外送线路，</text><text fill="#3A3838" fill-opacity="0.701961" font-family="Wingdings,Wingdings_MSFontService,Arial" font-weight="400" font-size="23.3333" transform="translate(1162.45 481)"></text><text fill="#3A3838" fill-opacity="0.701961" font-family="Microsoft YaHei,Microsoft YaHei_MSFontService,Arial" font-weight="400" font-size="23.3333" transform="translate(1199.95 481)">联合优化运行：在电力调</text><text fill="#3A3838" fill-opacity="0.701961" font-family="Microsoft YaHei,Microsoft YaHei_MSFontService,Arial" font-weight="400" font-size="23.3333" transform="translate(1199.95 515)">度中心，将风电和水电视</text><text fill="#3A3838" fill-opacity="0.701961" font-family="Microsoft YaHei,Microsoft YaHei_MSFontService,Arial" font-weight="400" font-size="23.3333" transform="translate(1199.95 548)">为一个统一调度</text><text fill="#3A3838" fill-opacity="0.701961" font-family="Wingdings,Wingdings_MSFontService,Arial" font-weight="400" font-size="23.3333" transform="translate(1162.45 589)"></text><text fill="#3A3838" fill-opacity="0.701961" font-family="Calibri,Calibri_MSFontService,Arial" font-weight="400" font-size="23.3333" transform="translate(1199.95 589)">“</text><text fill="#3A3838" fill-opacity="0.701961" font-family="Microsoft YaHei,Microsoft YaHei_MSFontService,Arial" font-weight="400" font-size="23.3333" transform="translate(1209.74 589)">风光水储</text><text fill="#3A3838" fill-opacity="0.701961" font-family="Calibri,Calibri_MSFontService,Arial" font-weight="400" font-size="23.3333" transform="translate(1303.08 589)">”</text><text fill="#3A3838" fill-opacity="0.701961" font-family="Microsoft YaHei,Microsoft YaHei_MSFontService,Arial" font-weight="400" font-size="23.3333" transform="translate(1312.87 589)">一体化：在风</text><text fill="#3A3838" fill-opacity="0.701961" font-family="Microsoft YaHei,Microsoft YaHei_MSFontService,Arial" font-weight="400" font-size="23.3333" transform="translate(1199.95 623)">电场周边配套建设光伏电</text><text fill="#3A3838" fill-opacity="0.701961" font-family="Microsoft YaHei,Microsoft YaHei_MSFontService,Arial" font-weight="400" font-size="23.3333" transform="translate(1199.95 656)">站，加入抽水蓄能，形成</text><text fill="#3A3838" fill-opacity="0.701961" font-family="Microsoft YaHei,Microsoft YaHei_MSFontService,Arial" font-weight="400" font-size="23.3333" transform="translate(1199.95 690)">一个多能互补清洁能源发</text><text fill="#3A3838" fill-opacity="0.701961" font-family="Microsoft YaHei,Microsoft YaHei_MSFontService,Arial" font-weight="400" font-size="23.3333" transform="translate(1199.95 724)">电综合体。</text></g></svg>