<svg width="1600" height="900" xmlns="http://www.w3.org/2000/svg" xmlns:xlink="http://www.w3.org/1999/xlink" overflow="hidden"><defs><clipPath id="clip0"><rect x="910" y="84" width="292" height="253"/></clipPath></defs><g><rect x="0" y="0" width="1600" height="900" fill="#FAFAFA"/><rect x="727" y="157" width="146" height="6" fill="#6187D3"/><text fill="#6187D3" font-family="Microsoft YaHei,Microsoft YaHei_MSFontService,Arial" font-weight="700" font-size="46.6667" transform="translate(576.79 133)">风能空间分布</text><rect x="117.5" y="532.5" width="853" height="284" stroke="#D8D7D7" stroke-width="5" stroke-miterlimit="8" fill="none"/><rect x="1014" y="570" width="393" height="186" fill="#6187D3"/><text fill="#3C3C3C" font-family="Microsoft YaHei,Microsoft YaHei_MSFontService,Arial" font-weight="400" font-size="30" transform="translate(481.969 600)">数据佐证</text><text fill="#3A3838" fill-opacity="0.701961" font-family="Calibri,Calibri_MSFontService,Arial" font-weight="400" font-size="23.3333" transform="translate(184.179 640)">·</text><text fill="#3A3838" fill-opacity="0.701961" font-family="Microsoft YaHei,Microsoft YaHei_MSFontService,Arial" font-weight="400" font-size="23.3333" transform="translate(195.22 640)">根据气象站和测风塔数据，香格里拉风能富集区（如山脊）的年平均风</text><text fill="#3A3838" fill-opacity="0.701961" font-family="Microsoft YaHei,Microsoft YaHei_MSFontService,Arial" font-weight="400" font-size="23.3333" transform="translate(443.045 674)">速可达</text><text fill="#3A3838" fill-opacity="0.701961" font-family="Calibri,Calibri_MSFontService,Arial" font-weight="400" font-size="23.3333" transform="translate(518.254 674)">6.5</text><text fill="#3A3838" fill-opacity="0.701961" font-family="Calibri,Calibri_MSFontService,Arial" font-weight="400" font-size="23.3333" transform="translate(553.045 674)">-</text><text fill="#3A3838" fill-opacity="0.701961" font-family="Calibri,Calibri_MSFontService,Arial" font-weight="400" font-size="23.3333" transform="translate(565.337 674)">8.0 m/s</text><text fill="#3A3838" fill-opacity="0.701961" font-family="Microsoft YaHei,Microsoft YaHei_MSFontService,Arial" font-weight="400" font-size="23.3333" transform="translate(636.354 674)">。</text><text fill="#3A3838" fill-opacity="0.701961" font-family="Calibri,Calibri_MSFontService,Arial" font-weight="400" font-size="23.3333" transform="translate(188.137 707)">·</text><text fill="#3A3838" fill-opacity="0.701961" font-family="Microsoft YaHei,Microsoft YaHei_MSFontService,Arial" font-weight="400" font-size="23.3333" transform="translate(199.179 707)">对应的风功率密度可达</text><text fill="#3A3838" fill-opacity="0.701961" font-family="Calibri,Calibri_MSFontService,Arial" font-weight="400" font-size="23.3333" transform="translate(437.72 707)">250</text><text fill="#3A3838" fill-opacity="0.701961" font-family="Calibri,Calibri_MSFontService,Arial" font-weight="400" font-size="23.3333" transform="translate(478.554 707)">-</text><text fill="#3A3838" fill-opacity="0.701961" font-family="Calibri,Calibri_MSFontService,Arial" font-weight="400" font-size="23.3333" transform="translate(490.845 707)">400 W/m</text><text fill="#3A3838" fill-opacity="0.701961" font-family="Calibri,Calibri_MSFontService,Arial" font-weight="400" font-size="23.3333" transform="translate(580.012 707)">²</text><text fill="#3A3838" fill-opacity="0.701961" font-family="Microsoft YaHei,Microsoft YaHei_MSFontService,Arial" font-weight="400" font-size="23.3333" transform="translate(587.929 707)">，这个水平达到了中国风能资源</text><text fill="#3A3838" fill-opacity="0.701961" font-family="Microsoft YaHei,Microsoft YaHei_MSFontService,Arial" font-weight="400" font-size="23.3333" transform="translate(263.454 741)">区划中的</text><text fill="#3A3838" fill-opacity="0.701961" font-family="Calibri,Calibri_MSFontService,Arial" font-weight="400" font-size="23.3333" transform="translate(356.787 741)">“</text><text fill="#3A3838" fill-opacity="0.701961" font-family="Microsoft YaHei,Microsoft YaHei_MSFontService,Arial" font-weight="400" font-size="23.3333" transform="translate(366.579 741)">较丰富区</text><text fill="#3A3838" fill-opacity="0.701961" font-family="Calibri,Calibri_MSFontService,Arial" font-weight="400" font-size="23.3333" transform="translate(459.912 741)">”</text><text fill="#3A3838" fill-opacity="0.701961" font-family="Microsoft YaHei,Microsoft YaHei_MSFontService,Arial" font-weight="400" font-size="23.3333" transform="translate(469.704 741)">上限，甚至摸到了</text><text fill="#3A3838" fill-opacity="0.701961" font-family="Calibri,Calibri_MSFontService,Arial" font-weight="400" font-size="23.3333" transform="translate(656.37 741)">“</text><text fill="#3A3838" fill-opacity="0.701961" font-family="Microsoft YaHei,Microsoft YaHei_MSFontService,Arial" font-weight="400" font-size="23.3333" transform="translate(666.162 741)">丰富区</text><text fill="#3A3838" fill-opacity="0.701961" font-family="Calibri,Calibri_MSFontService,Arial" font-weight="400" font-size="23.3333" transform="translate(736.162 741)">”</text><text fill="#3A3838" fill-opacity="0.701961" font-family="Microsoft YaHei,Microsoft YaHei_MSFontService,Arial" font-weight="400" font-size="23.3333" transform="translate(745.954 741)">的门槛。</text><path d="M1232.36 662.106C1223.46 662.106 1216.11 669.594 1216.11 679.053 1216.11 688.118 1223.46 696 1232.36 696 1241.65 696 1249 688.118 1249 679.053 1249 669.594 1241.65 662.106 1232.36 662.106M1230.43 686.935C1222.69 680.235 1222.69 680.235 1222.69 680.235 1225.78 676.294 1225.78 676.294 1225.78 676.294 1230.43 680.235 1230.43 680.235 1230.43 680.235 1239.71 671.959 1239.71 671.959 1239.71 671.959 1242.81 675.9 1242.81 675.9 1242.81 675.9L1230.43 686.935ZM1213.02 679.053C1213.02 684.176 1214.95 688.906 1218.05 692.453 1216.11 693.241 1214.56 694.029 1212.63 694.424 1211.47 690.876 1207.98 688.118 1204.12 688.118 1200.25 688.118 1196.76 690.876 1195.6 694.424 1192.51 693.635 1189.8 692.453 1187.48 690.876 1189.03 687.724 1188.25 683.388 1185.54 680.629 1182.83 677.871 1178.58 677.082 1175.1 678.659 1173.93 676.294 1172.77 673.535 1172 670.382 1175.48 669.2 1177.8 665.653 1177.8 661.712 1177.8 657.771 1175.48 654.224 1172 653.041 1172.77 650.282 1173.93 647.524 1175.1 644.765 1178.58 646.341 1182.83 645.947 1185.54 642.794 1188.25 640.035 1189.03 635.7 1187.48 632.547 1189.8 630.971 1192.51 629.788 1195.6 629 1196.76 632.547 1200.25 635.306 1204.12 635.306 1207.98 635.306 1211.47 632.547 1212.63 629 1215.34 629.788 1218.05 630.971 1220.75 632.547 1219.21 635.7 1219.59 640.035 1222.69 642.794 1225.4 645.947 1229.27 646.341 1232.75 644.765 1234.3 647.524 1235.46 650.282 1236.23 653.041 1233.52 653.829 1231.59 656.194 1230.43 658.953 1226.56 659.347 1223.08 660.924 1219.98 663.682 1219.98 662.894 1219.98 662.5 1219.98 661.712 1219.98 652.647 1213.02 645.553 1204.12 645.553 1195.22 645.553 1187.86 652.647 1187.86 661.712 1187.86 670.776 1195.22 677.871 1204.12 677.871 1207.6 677.871 1210.69 677.082 1213.4 675.112 1213.02 676.294 1213.02 677.476 1213.02 679.053M1204.12 647.129C1195.99 647.129 1189.41 653.435 1189.41 661.712 1189.41 669.988 1195.99 676.294 1204.12 676.294 1207.98 676.294 1211.47 674.718 1213.79 672.353 1214.95 669.988 1216.11 667.624 1218.05 665.259 1218.43 664.076 1218.43 662.894 1218.43 661.712 1218.43 653.435 1212.24 647.129 1204.12 647.129M1204.12 671.565C1198.7 671.565 1194.44 667.229 1194.44 661.712 1194.44 656.194 1198.7 651.859 1204.12 651.859 1209.53 651.859 1213.79 656.194 1213.79 661.712 1213.79 667.229 1209.53 671.565 1204.12 671.565" fill="#FFFFFF" fill-rule="evenodd"/><path d="M116.833 186.167 340.833 186.167 340.833 255.167 116.833 255.167Z" fill="#6187D3" fill-rule="evenodd"/><path d="M340.833 186.167 910.667 186.167 910.667 255.167 340.833 255.167Z" fill="#6187D3" fill-rule="evenodd"/><path d="M910.667 186.167 1201.67 186.167 1201.67 255.167 910.667 255.167Z" fill="#6187D3" fill-rule="evenodd"/><path d="M1201.67 186.167 1559.75 186.167 1559.75 255.167 1201.67 255.167Z" fill="#6187D3" fill-rule="evenodd"/><path d="M116.833 255.167 340.833 255.167 340.833 339.167 116.833 339.167Z" fill="#D2D9EF" fill-rule="evenodd"/><path d="M340.833 255.167 910.667 255.167 910.667 339.167 340.833 339.167Z" fill="#D2D9EF" fill-rule="evenodd"/><path d="M910.667 255.167 1201.67 255.167 1201.67 339.167 910.667 339.167Z" fill="#D2D9EF" fill-rule="evenodd"/><path d="M1201.67 255.167 1559.75 255.167 1559.75 339.167 1201.67 339.167Z" fill="#D2D9EF" fill-rule="evenodd"/><path d="M116.833 339.167 340.833 339.167 340.833 388.333 116.833 388.333Z" fill="#EAEDF7" fill-rule="evenodd"/><path d="M340.833 339.167 910.667 339.167 910.667 388.333 340.833 388.333Z" fill="#EAEDF7" fill-rule="evenodd"/><path d="M910.667 339.167 1201.67 339.167 1201.67 388.333 910.667 388.333Z" fill="#EAEDF7" fill-rule="evenodd"/><path d="M1201.67 339.167 1559.75 339.167 1559.75 388.333 1201.67 388.333Z" fill="#EAEDF7" fill-rule="evenodd"/><path d="M116.833 388.333 340.833 388.333 340.833 437.583 116.833 437.583Z" fill="#D2D9EF" fill-rule="evenodd"/><path d="M340.833 388.333 910.667 388.333 910.667 437.583 340.833 437.583Z" fill="#D2D9EF" fill-rule="evenodd"/><path d="M910.667 388.333 1201.67 388.333 1201.67 437.583 910.667 437.583Z" fill="#D2D9EF" fill-rule="evenodd"/><path d="M1201.67 388.333 1559.75 388.333 1559.75 437.583 1201.67 437.583Z" fill="#D2D9EF" fill-rule="evenodd"/><path d="M116.833 437.583 340.833 437.583 340.833 486.75 116.833 486.75Z" fill="#EAEDF7" fill-rule="evenodd"/><path d="M340.833 437.583 910.667 437.583 910.667 486.75 340.833 486.75Z" fill="#EAEDF7" fill-rule="evenodd"/><path d="M910.667 437.583 1201.67 437.583 1201.67 486.75 910.667 486.75Z" fill="#EAEDF7" fill-rule="evenodd"/><path d="M1201.67 437.583 1559.75 437.583 1559.75 486.75 1201.67 486.75Z" fill="#EAEDF7" fill-rule="evenodd"/><path d="M340.833 185.333 340.833 487.583" stroke="#FFFFFF" stroke-width="1.66667" stroke-linejoin="round" stroke-miterlimit="10" fill="none" fill-rule="evenodd"/><path d="M910.667 185.333 910.667 487.583" stroke="#FFFFFF" stroke-width="1.66667" stroke-linejoin="round" stroke-miterlimit="10" fill="none" fill-rule="evenodd"/><path d="M1201.67 185.333 1201.67 487.583" stroke="#FFFFFF" stroke-width="1.66667" stroke-linejoin="round" stroke-miterlimit="10" fill="none" fill-rule="evenodd"/><path d="M116 255.167 1560.58 255.167" stroke="#FFFFFF" stroke-width="5" stroke-linejoin="round" stroke-miterlimit="10" fill="none" fill-rule="evenodd"/><path d="M116 339.167 1560.58 339.167" stroke="#FFFFFF" stroke-width="1.66667" stroke-linejoin="round" stroke-miterlimit="10" fill="none" fill-rule="evenodd"/><path d="M116 388.333 1560.58 388.333" stroke="#FFFFFF" stroke-width="1.66667" stroke-linejoin="round" stroke-miterlimit="10" fill="none" fill-rule="evenodd"/><path d="M116 437.583 1560.58 437.583" stroke="#FFFFFF" stroke-width="1.66667" stroke-linejoin="round" stroke-miterlimit="10" fill="none" fill-rule="evenodd"/><path d="M116.833 185.333 116.833 487.583" stroke="#FFFFFF" stroke-width="1.66667" stroke-linejoin="round" stroke-miterlimit="10" fill="none" fill-rule="evenodd"/><path d="M1559.75 185.333 1559.75 487.583" stroke="#FFFFFF" stroke-width="1.66667" stroke-linejoin="round" stroke-miterlimit="10" fill="none" fill-rule="evenodd"/><path d="M116 186.167 1560.58 186.167" stroke="#FFFFFF" stroke-width="1.66667" stroke-linejoin="round" stroke-miterlimit="10" fill="none" fill-rule="evenodd"/><path d="M116 486.75 1560.58 486.75" stroke="#FFFFFF" stroke-width="1.66667" stroke-linejoin="round" stroke-miterlimit="10" fill="none" fill-rule="evenodd"/><g><text fill="#FFFFFF" font-family="Microsoft YaHei,Microsoft YaHei_MSFontService,Arial" font-weight="700" font-size="30" transform="translate(1213.67 220)">风功率密度（瓦</text></g><text fill="#FFFFFF" font-family="Calibri,Calibri_MSFontService,Arial" font-weight="700" font-size="30" transform="translate(1423.67 220)">/</text><g><text fill="#FFFFFF" font-family="Microsoft YaHei,Microsoft YaHei_MSFontService,Arial" font-weight="700" font-size="30" transform="translate(1436.58 220)">平方米）</text></g><g><text fill="#FFFFFF" font-family="Microsoft YaHei,Microsoft YaHei_MSFontService,Arial" font-weight="700" font-size="30" transform="translate(922.667 220)">年平均风速（米</text></g><text fill="#FFFFFF" font-family="Calibri,Calibri_MSFontService,Arial" font-weight="700" font-size="30" transform="translate(1132.67 220)">/</text><g clip-path="url(#clip0)"><text fill="#FFFFFF" font-family="Microsoft YaHei,Microsoft YaHei_MSFontService,Arial" font-weight="700" font-size="30" transform="translate(1145.58 220)">秒）</text></g><text fill="#FFFFFF" font-family="Microsoft YaHei,Microsoft YaHei_MSFontService,Arial" font-weight="700" font-size="30" transform="translate(535.75 220)">主要分布区域</text><text fill="#FFFFFF" font-family="Microsoft YaHei,Microsoft YaHei_MSFontService,Arial" font-weight="700" font-size="30" transform="translate(153.833 220)">风能资源区</text><text fill="#3A3838" font-family="Calibri,Calibri_MSFontService,Arial" font-weight="400" font-size="30" transform="translate(1357.9 289)">300</text><text fill="#3A3838" font-family="Calibri,Calibri_MSFontService,Arial" font-weight="400" font-size="30" transform="translate(1037.21 289)">6.0</text><g><text fill="#3A3838" font-family="Microsoft YaHei,Microsoft YaHei_MSFontService,Arial" font-weight="400" font-size="30" transform="translate(355.75 290)">内蒙古、新疆北部</text></g><g><text fill="#3A3838" font-family="Microsoft YaHei,Microsoft YaHei_MSFontService,Arial" font-weight="400" font-size="30" transform="translate(595.75 290)">、辽东半岛、渤海、东</text></g><text fill="#3A3838" font-family="Microsoft YaHei,Microsoft YaHei_MSFontService,Arial" font-weight="400" font-size="30" transform="translate(460.75 325)">海、台湾海峡、南海沿岸</text><text fill="#3A3838" font-family="Microsoft YaHei,Microsoft YaHei_MSFontService,Arial" font-weight="400" font-size="30" transform="translate(198.833 289)">丰富</text><text fill="#3A3838" font-family="Calibri,Calibri_MSFontService,Arial" font-weight="400" font-size="30" transform="translate(1323.62 373)">200</text><text fill="#3A3838" font-family="Calibri,Calibri_MSFontService,Arial" font-weight="400" font-size="30" transform="translate(1376.12 373)">-</text><text fill="#3A3838" font-family="Calibri,Calibri_MSFontService,Arial" font-weight="400" font-size="30" transform="translate(1392.17 373)">300</text><text fill="#3A3838" font-family="Calibri,Calibri_MSFontService,Arial" font-weight="400" font-size="30" transform="translate(1006.79 373)">5.0</text><text fill="#3A3838" font-family="Calibri,Calibri_MSFontService,Arial" font-weight="400" font-size="30" transform="translate(1051.58 373)">-</text><text fill="#3A3838" font-family="Calibri,Calibri_MSFontService,Arial" font-weight="400" font-size="30" transform="translate(1067.62 373)">6.0</text><text fill="#3A3838" font-family="Microsoft YaHei,Microsoft YaHei_MSFontService,Arial" font-weight="400" font-size="30" transform="translate(370.75 373)">东北、华北、西北大部，青藏高原大部</text><text fill="#3A3838" font-family="Microsoft YaHei,Microsoft YaHei_MSFontService,Arial" font-weight="400" font-size="30" transform="translate(168.833 373)">较丰富区</text><text fill="#3A3838" font-family="Calibri,Calibri_MSFontService,Arial" font-weight="400" font-size="30" transform="translate(1323.62 422)">200</text><text fill="#3A3838" font-family="Calibri,Calibri_MSFontService,Arial" font-weight="400" font-size="30" transform="translate(1376.12 422)">-</text><text fill="#3A3838" font-family="Calibri,Calibri_MSFontService,Arial" font-weight="400" font-size="30" transform="translate(1392.17 422)">300</text><text fill="#3A3838" font-family="Calibri,Calibri_MSFontService,Arial" font-weight="400" font-size="30" transform="translate(1006.79 422)">4.0</text><text fill="#3A3838" font-family="Calibri,Calibri_MSFontService,Arial" font-weight="400" font-size="30" transform="translate(1051.58 422)">-</text><text fill="#3A3838" font-family="Calibri,Calibri_MSFontService,Arial" font-weight="400" font-size="30" transform="translate(1067.62 422)">5.0</text><text fill="#3A3838" font-family="Microsoft YaHei,Microsoft YaHei_MSFontService,Arial" font-weight="400" font-size="30" transform="translate(505.75 422)">四川</text><text fill="#FF0000" font-family="Microsoft YaHei,Microsoft YaHei_MSFontService,Arial" font-weight="700" font-size="30" transform="translate(565.75 422)">云南</text><text fill="#3A3838" font-family="Microsoft YaHei,Microsoft YaHei_MSFontService,Arial" font-weight="400" font-size="30" transform="translate(625.75 422)">部分地区</text><text fill="#3A3838" font-family="Microsoft YaHei,Microsoft YaHei_MSFontService,Arial" font-weight="400" font-size="30" transform="translate(168.833 422)">可利用区</text><text fill="#3A3838" font-family="Calibri,Calibri_MSFontService,Arial" font-weight="400" font-size="30" transform="translate(1323.62 472)">100</text><text fill="#3A3838" font-family="Calibri,Calibri_MSFontService,Arial" font-weight="400" font-size="30" transform="translate(1376.12 472)">-</text><text fill="#3A3838" font-family="Calibri,Calibri_MSFontService,Arial" font-weight="400" font-size="30" transform="translate(1392.17 472)">200</text><text fill="#3A3838" font-family="Calibri,Calibri_MSFontService,Arial" font-weight="400" font-size="30" transform="translate(1006.79 472)">4.0</text><text fill="#3A3838" font-family="Calibri,Calibri_MSFontService,Arial" font-weight="400" font-size="30" transform="translate(1051.58 472)">-</text><text fill="#3A3838" font-family="Calibri,Calibri_MSFontService,Arial" font-weight="400" font-size="30" transform="translate(1067.62 472)">5.0</text><g><text fill="#3A3838" font-family="Microsoft YaHei,Microsoft YaHei_MSFontService,Arial" font-weight="400" font-size="30" transform="translate(355.75 472)">四川盆地、塔里木盆地、雅鲁藏布江河谷</text></g><text fill="#3A3838" font-family="Microsoft YaHei,Microsoft YaHei_MSFontService,Arial" font-weight="400" font-size="30" transform="translate(183.833 472)">贫乏区</text></g></svg>