<svg width="1600" height="900" xmlns="http://www.w3.org/2000/svg" xmlns:xlink="http://www.w3.org/1999/xlink" overflow="hidden"><defs><filter id="fx0" x="-10%" y="-10%" width="120%" height="120%" filterUnits="userSpaceOnUse" primitiveUnits="userSpaceOnUse"><feComponentTransfer color-interpolation-filters="sRGB"><feFuncR type="discrete" tableValues="0 0"/><feFuncG type="discrete" tableValues="0 0"/><feFuncB type="discrete" tableValues="0 0"/><feFuncA type="linear" slope="0.141176" intercept="0"/></feComponentTransfer><feGaussianBlur stdDeviation="2.22222 2.22222"/></filter><filter id="fx1" x="-10%" y="-10%" width="120%" height="120%" filterUnits="userSpaceOnUse" primitiveUnits="userSpaceOnUse"><feComponentTransfer color-interpolation-filters="sRGB"><feFuncR type="discrete" tableValues="0 0"/><feFuncG type="discrete" tableValues="0 0"/><feFuncB type="discrete" tableValues="0 0"/><feFuncA type="linear" slope="0.141176" intercept="0"/></feComponentTransfer><feGaussianBlur stdDeviation="2.22222 2.22222"/></filter><filter id="fx2" x="-10%" y="-10%" width="120%" height="120%" filterUnits="userSpaceOnUse" primitiveUnits="userSpaceOnUse"><feComponentTransfer color-interpolation-filters="sRGB"><feFuncR type="discrete" tableValues="0 0"/><feFuncG type="discrete" tableValues="0 0"/><feFuncB type="discrete" tableValues="0 0"/><feFuncA type="linear" slope="0.141176" intercept="0"/></feComponentTransfer><feGaussianBlur stdDeviation="2.22222 2.22222"/></filter><filter id="fx3" x="-10%" y="-10%" width="120%" height="120%" filterUnits="userSpaceOnUse" primitiveUnits="userSpaceOnUse"><feComponentTransfer color-interpolation-filters="sRGB"><feFuncR type="discrete" tableValues="0 0"/><feFuncG type="discrete" tableValues="0 0"/><feFuncB type="discrete" tableValues="0 0"/><feFuncA type="linear" slope="0.101961" intercept="0"/></feComponentTransfer><feGaussianBlur stdDeviation="7.8976 7.95681"/></filter><filter id="fx4" x="-10%" y="-10%" width="120%" height="120%" filterUnits="userSpaceOnUse" primitiveUnits="userSpaceOnUse"><feComponentTransfer color-interpolation-filters="sRGB"><feFuncR type="discrete" tableValues="0 0"/><feFuncG type="discrete" tableValues="0 0"/><feFuncB type="discrete" tableValues="0 0"/><feFuncA type="linear" slope="0.141176" intercept="0"/></feComponentTransfer><feGaussianBlur stdDeviation="2.22222 2.22222"/></filter><filter id="fx5" x="-10%" y="-10%" width="120%" height="120%" filterUnits="userSpaceOnUse" primitiveUnits="userSpaceOnUse"><feComponentTransfer color-interpolation-filters="sRGB"><feFuncR type="discrete" tableValues="0 0"/><feFuncG type="discrete" tableValues="0 0"/><feFuncB type="discrete" tableValues="0 0"/><feFuncA type="linear" slope="0.101961" intercept="0"/></feComponentTransfer><feGaussianBlur stdDeviation="7.8976 7.95681"/></filter><filter id="fx6" x="-10%" y="-10%" width="120%" height="120%" filterUnits="userSpaceOnUse" primitiveUnits="userSpaceOnUse"><feComponentTransfer color-interpolation-filters="sRGB"><feFuncR type="discrete" tableValues="0 0"/><feFuncG type="discrete" tableValues="0 0"/><feFuncB type="discrete" tableValues="0 0"/><feFuncA type="linear" slope="0.101961" intercept="0"/></feComponentTransfer><feGaussianBlur stdDeviation="7.8976 7.95681"/></filter><clipPath id="clip7"><rect x="0" y="0" width="1600" height="900"/></clipPath><linearGradient x1="1026.43" y1="393.251" x2="1043.3" y2="496.84" gradientUnits="userSpaceOnUse" spreadMethod="reflect" id="stroke8"><stop offset="0" stop-color="#6187D3"/><stop offset="0.0142857" stop-color="#6188D3"/><stop offset="0.0285714" stop-color="#628AD4"/><stop offset="0.0428571" stop-color="#638CD5"/><stop offset="0.0571429" stop-color="#648ED6"/><stop offset="0.0714286" stop-color="#6590D7"/><stop offset="0.0857143" stop-color="#6691D8"/><stop offset="0.1" stop-color="#6793D9"/><stop offset="0.114286" stop-color="#6795DA"/><stop offset="0.128571" stop-color="#6897DB"/><stop offset="0.142857" stop-color="#6998DC"/><stop offset="0.157143" stop-color="#6A9ADD"/><stop offset="0.171429" stop-color="#6B9CDD"/><stop offset="0.185714" stop-color="#6B9DDE"/><stop offset="0.2" stop-color="#6C9FDF"/><stop offset="0.214286" stop-color="#6DA0E0"/><stop offset="0.228571" stop-color="#6EA2E1"/><stop offset="0.242857" stop-color="#6EA3E2"/><stop offset="0.257143" stop-color="#6FA5E2"/><stop offset="0.271429" stop-color="#70A6E3"/><stop offset="0.285714" stop-color="#70A8E4"/><stop offset="0.3" stop-color="#71A9E5"/><stop offset="0.314286" stop-color="#72ABE5"/><stop offset="0.328571" stop-color="#72ACE6"/><stop offset="0.342857" stop-color="#73ADE7"/><stop offset="0.357143" stop-color="#74AEE7"/><stop offset="0.371429" stop-color="#74B0E8"/><stop offset="0.385714" stop-color="#75B1E9"/><stop offset="0.4" stop-color="#75B2E9"/><stop offset="0.414286" stop-color="#76B3EA"/><stop offset="0.428571" stop-color="#77B5EB"/><stop offset="0.442857" stop-color="#77B6EB"/><stop offset="0.457143" stop-color="#78B7EC"/><stop offset="0.471429" stop-color="#78B8EC"/><stop offset="0.485714" stop-color="#79B9ED"/><stop offset="0.5" stop-color="#79BAED"/><stop offset="0.514286" stop-color="#7ABBEE"/><stop offset="0.528571" stop-color="#7ABCEE"/><stop offset="0.542857" stop-color="#7BBDEF"/><stop offset="0.557143" stop-color="#7BBEEF"/><stop offset="0.571429" stop-color="#7CBFF0"/><stop offset="0.585714" stop-color="#7CC0F0"/><stop offset="0.6" stop-color="#7CC1F1"/><stop offset="0.614286" stop-color="#7DC2F1"/><stop offset="0.628571" stop-color="#7DC2F2"/><stop offset="0.642857" stop-color="#7EC3F2"/><stop offset="0.657143" stop-color="#7EC4F3"/><stop offset="0.671429" stop-color="#7EC5F3"/><stop offset="0.685714" stop-color="#7FC5F3"/><stop offset="0.7" stop-color="#7FC6F4"/><stop offset="0.714286" stop-color="#7FC7F4"/><stop offset="0.728571" stop-color="#80C7F4"/><stop offset="0.742857" stop-color="#80C8F5"/><stop offset="0.757143" stop-color="#80C9F5"/><stop offset="0.771429" stop-color="#80C9F5"/><stop offset="0.785714" stop-color="#81CAF5"/><stop offset="0.8" stop-color="#81CAF6"/><stop offset="0.814286" stop-color="#81CAF6"/><stop offset="0.828571" stop-color="#81CBF6"/><stop offset="0.842857" stop-color="#81CBF6"/><stop offset="0.857143" stop-color="#82CCF7"/><stop offset="0.871429" stop-color="#82CCF7"/><stop offset="0.885714" stop-color="#82CCF7"/><stop offset="0.9" stop-color="#82CDF7"/><stop offset="0.914286" stop-color="#82CDF7"/><stop offset="0.928571" stop-color="#82CDF7"/><stop offset="0.942857" stop-color="#82CDF7"/><stop offset="0.957143" stop-color="#82CDF7"/><stop offset="0.971429" stop-color="#82CDF7"/><stop offset="0.985714" stop-color="#82CDF7"/><stop offset="1" stop-color="#83CEF8"/></linearGradient><linearGradient x1="1038.61" y1="541.021" x2="1064.76" y2="701.575" gradientUnits="userSpaceOnUse" spreadMethod="reflect" id="stroke9"><stop offset="0" stop-color="#6187D3"/><stop offset="0.0142857" stop-color="#6188D3"/><stop offset="0.0285714" stop-color="#628AD4"/><stop offset="0.0428571" stop-color="#638CD5"/><stop offset="0.0571429" stop-color="#648ED6"/><stop offset="0.0714286" stop-color="#6590D7"/><stop offset="0.0857143" stop-color="#6691D8"/><stop offset="0.1" stop-color="#6793D9"/><stop offset="0.114286" stop-color="#6795DA"/><stop offset="0.128571" stop-color="#6897DB"/><stop offset="0.142857" stop-color="#6998DC"/><stop offset="0.157143" stop-color="#6A9ADD"/><stop offset="0.171429" stop-color="#6B9CDD"/><stop offset="0.185714" stop-color="#6B9DDE"/><stop offset="0.2" stop-color="#6C9FDF"/><stop offset="0.214286" stop-color="#6DA0E0"/><stop offset="0.228571" stop-color="#6EA2E1"/><stop offset="0.242857" stop-color="#6EA3E2"/><stop offset="0.257143" stop-color="#6FA5E2"/><stop offset="0.271429" stop-color="#70A6E3"/><stop offset="0.285714" stop-color="#70A8E4"/><stop offset="0.3" stop-color="#71A9E5"/><stop offset="0.314286" stop-color="#72ABE5"/><stop offset="0.328571" stop-color="#72ACE6"/><stop offset="0.342857" stop-color="#73ADE7"/><stop offset="0.357143" stop-color="#74AEE7"/><stop offset="0.371429" stop-color="#74B0E8"/><stop offset="0.385714" stop-color="#75B1E9"/><stop offset="0.4" stop-color="#75B2E9"/><stop offset="0.414286" stop-color="#76B3EA"/><stop offset="0.428571" stop-color="#77B5EB"/><stop offset="0.442857" stop-color="#77B6EB"/><stop offset="0.457143" stop-color="#78B7EC"/><stop offset="0.471429" stop-color="#78B8EC"/><stop offset="0.485714" stop-color="#79B9ED"/><stop offset="0.5" stop-color="#79BAED"/><stop offset="0.514286" stop-color="#7ABBEE"/><stop offset="0.528571" stop-color="#7ABCEE"/><stop offset="0.542857" stop-color="#7BBDEF"/><stop offset="0.557143" stop-color="#7BBEEF"/><stop offset="0.571429" stop-color="#7CBFF0"/><stop offset="0.585714" stop-color="#7CC0F0"/><stop offset="0.6" stop-color="#7CC1F1"/><stop offset="0.614286" stop-color="#7DC2F1"/><stop offset="0.628571" stop-color="#7DC2F2"/><stop offset="0.642857" stop-color="#7EC3F2"/><stop offset="0.657143" stop-color="#7EC4F3"/><stop offset="0.671429" stop-color="#7EC5F3"/><stop offset="0.685714" stop-color="#7FC5F3"/><stop offset="0.7" stop-color="#7FC6F4"/><stop offset="0.714286" stop-color="#7FC7F4"/><stop offset="0.728571" stop-color="#80C7F4"/><stop offset="0.742857" stop-color="#80C8F5"/><stop offset="0.757143" stop-color="#80C9F5"/><stop offset="0.771429" stop-color="#80C9F5"/><stop offset="0.785714" stop-color="#81CAF5"/><stop offset="0.8" stop-color="#81CAF6"/><stop offset="0.814286" stop-color="#81CAF6"/><stop offset="0.828571" stop-color="#81CBF6"/><stop offset="0.842857" stop-color="#81CBF6"/><stop offset="0.857143" stop-color="#82CCF7"/><stop offset="0.871429" stop-color="#82CCF7"/><stop offset="0.885714" stop-color="#82CCF7"/><stop offset="0.9" stop-color="#82CDF7"/><stop offset="0.914286" stop-color="#82CDF7"/><stop offset="0.928571" stop-color="#82CDF7"/><stop offset="0.942857" stop-color="#82CDF7"/><stop offset="0.957143" stop-color="#82CDF7"/><stop offset="0.971429" stop-color="#82CDF7"/><stop offset="0.985714" stop-color="#82CDF7"/><stop offset="1" stop-color="#83CEF8"/></linearGradient><linearGradient x1="966.587" y1="459.519" x2="990.401" y2="605.726" gradientUnits="userSpaceOnUse" spreadMethod="reflect" id="stroke10"><stop offset="0" stop-color="#6187D3"/><stop offset="0.0142857" stop-color="#6188D3"/><stop offset="0.0285714" stop-color="#628AD4"/><stop offset="0.0428571" stop-color="#638CD5"/><stop offset="0.0571429" stop-color="#648ED6"/><stop offset="0.0714286" stop-color="#6590D7"/><stop offset="0.0857143" stop-color="#6691D8"/><stop offset="0.1" stop-color="#6793D9"/><stop offset="0.114286" stop-color="#6795DA"/><stop offset="0.128571" stop-color="#6897DB"/><stop offset="0.142857" stop-color="#6998DC"/><stop offset="0.157143" stop-color="#6A9ADD"/><stop offset="0.171429" stop-color="#6B9CDD"/><stop offset="0.185714" stop-color="#6B9DDE"/><stop offset="0.2" stop-color="#6C9FDF"/><stop offset="0.214286" stop-color="#6DA0E0"/><stop offset="0.228571" stop-color="#6EA2E1"/><stop offset="0.242857" stop-color="#6EA3E2"/><stop offset="0.257143" stop-color="#6FA5E2"/><stop offset="0.271429" stop-color="#70A6E3"/><stop offset="0.285714" stop-color="#70A8E4"/><stop offset="0.3" stop-color="#71A9E5"/><stop offset="0.314286" stop-color="#72ABE5"/><stop offset="0.328571" stop-color="#72ACE6"/><stop offset="0.342857" stop-color="#73ADE7"/><stop offset="0.357143" stop-color="#74AEE7"/><stop offset="0.371429" stop-color="#74B0E8"/><stop offset="0.385714" stop-color="#75B1E9"/><stop offset="0.4" stop-color="#75B2E9"/><stop offset="0.414286" stop-color="#76B3EA"/><stop offset="0.428571" stop-color="#77B5EB"/><stop offset="0.442857" stop-color="#77B6EB"/><stop offset="0.457143" stop-color="#78B7EC"/><stop offset="0.471429" stop-color="#78B8EC"/><stop offset="0.485714" stop-color="#79B9ED"/><stop offset="0.5" stop-color="#79BAED"/><stop offset="0.514286" stop-color="#7ABBEE"/><stop offset="0.528571" stop-color="#7ABCEE"/><stop offset="0.542857" stop-color="#7BBDEF"/><stop offset="0.557143" stop-color="#7BBEEF"/><stop offset="0.571429" stop-color="#7CBFF0"/><stop offset="0.585714" stop-color="#7CC0F0"/><stop offset="0.6" stop-color="#7CC1F1"/><stop offset="0.614286" stop-color="#7DC2F1"/><stop offset="0.628571" stop-color="#7DC2F2"/><stop offset="0.642857" stop-color="#7EC3F2"/><stop offset="0.657143" stop-color="#7EC4F3"/><stop offset="0.671429" stop-color="#7EC5F3"/><stop offset="0.685714" stop-color="#7FC5F3"/><stop offset="0.7" stop-color="#7FC6F4"/><stop offset="0.714286" stop-color="#7FC7F4"/><stop offset="0.728571" stop-color="#80C7F4"/><stop offset="0.742857" stop-color="#80C8F5"/><stop offset="0.757143" stop-color="#80C9F5"/><stop offset="0.771429" stop-color="#80C9F5"/><stop offset="0.785714" stop-color="#81CAF5"/><stop offset="0.8" stop-color="#81CAF6"/><stop offset="0.814286" stop-color="#81CAF6"/><stop offset="0.828571" stop-color="#81CBF6"/><stop offset="0.842857" stop-color="#81CBF6"/><stop offset="0.857143" stop-color="#82CCF7"/><stop offset="0.871429" stop-color="#82CCF7"/><stop offset="0.885714" stop-color="#82CCF7"/><stop offset="0.9" stop-color="#82CDF7"/><stop offset="0.914286" stop-color="#82CDF7"/><stop offset="0.928571" stop-color="#82CDF7"/><stop offset="0.942857" stop-color="#82CDF7"/><stop offset="0.957143" stop-color="#82CDF7"/><stop offset="0.971429" stop-color="#82CDF7"/><stop offset="0.985714" stop-color="#82CDF7"/><stop offset="1" stop-color="#83CEF8"/></linearGradient><clipPath id="clip11"><rect x="0" y="0" width="87" height="56"/></clipPath><clipPath id="clip12"><rect x="0" y="0" width="87" height="56"/></clipPath></defs><g clip-path="url(#clip7)"><rect x="0" y="0" width="1600" height="900" fill="#FAFAFA"/><rect x="727" y="157" width="146" height="6" fill="#6187D3"/><g filter="url(#fx0)" transform="translate(269 659)"><g><path d="M8 16.6611C8 11.8777 11.8777 8 16.6611 8L1015.34 8C1020.12 8 1024 11.8777 1024 16.6611L1024 177.339C1024 182.122 1020.12 186 1015.34 186L16.6611 186C11.8777 186 8 182.122 8 177.339Z" fill="#FFFFFF" fill-rule="evenodd"/></g></g><path d="M277 670.661C277 665.878 280.878 662 285.661 662L1284.34 662C1289.12 662 1293 665.878 1293 670.661L1293 831.339C1293 836.122 1289.12 840 1284.34 840L285.661 840C280.878 840 277 836.122 277 831.339Z" fill="#FFFFFF" fill-rule="evenodd"/><text fill="#6187D3" font-family="Microsoft YaHei,Microsoft YaHei_MSFontService,Arial" font-weight="700" font-size="46.6667" transform="translate(363.417 101)">基础设施建设与设备维护</text><g filter="url(#fx1)" transform="translate(428 146)"><g><path d="M8 25.8471C8 15.9904 15.9904 8 25.8471 8L698.153 8C708.01 8 716 15.9904 716 25.8471L716 503.153C716 513.01 708.01 521 698.153 521L25.8471 521C15.9904 521 8 513.01 8 503.153Z" fill="#6187D3" fill-rule="evenodd"/></g></g><path d="M436 166.847C436 156.99 443.99 149 453.847 149L1126.15 149C1136.01 149 1144 156.99 1144 166.847L1144 644.153C1144 654.01 1136.01 662 1126.15 662L453.847 662C443.99 662 436 654.01 436 644.153Z" fill="#6187D3" fill-rule="evenodd"/><text fill="#FFFFFF" font-family="Microsoft YaHei,Microsoft YaHei_MSFontService,Arial" font-weight="700" font-size="40" transform="translate(512.502 633)">基础设施建设</text><text fill="#B2FFFF" fill-opacity="0.701961" font-family="Wingdings,Wingdings_MSFontService,Arial" font-weight="400" font-size="23.3333" transform="translate(474.334 208)"></text><text fill="#B2FFFF" fill-opacity="0.701961" font-family="Microsoft YaHei,Microsoft YaHei_MSFontService,Arial" font-weight="400" font-size="23.3333" transform="translate(511.834 208)">道路修建：修建满足大件设备运输的</text><text fill="#B2FFFF" fill-opacity="0.701961" font-family="Calibri,Calibri_MSFontService,Arial" font-weight="400" font-size="23.3333" transform="translate(885.167 208)">“</text><text fill="#B2FFFF" fill-opacity="0.701961" font-family="Microsoft YaHei,Microsoft YaHei_MSFontService,Arial" font-weight="400" font-size="23.3333" transform="translate(894.959 208)">大件路</text><text fill="#B2FFFF" fill-opacity="0.701961" font-family="Calibri,Calibri_MSFontService,Arial" font-weight="400" font-size="23.3333" transform="translate(964.959 208)">”</text><text fill="#B2FFFF" fill-opacity="0.701961" font-family="Microsoft YaHei,Microsoft YaHei_MSFontService,Arial" font-weight="400" font-size="23.3333" transform="translate(974.751 208)">，坡度、</text><text fill="#B2FFFF" fill-opacity="0.701961" font-family="Microsoft YaHei,Microsoft YaHei_MSFontService,Arial" font-weight="400" font-size="23.3333" transform="translate(511.834 242)">转弯半径都有严格要求。</text><text fill="#B2FFFF" fill-opacity="0.701961" font-family="Wingdings,Wingdings_MSFontService,Arial" font-weight="400" font-size="23.3333" transform="translate(478.751 472)"></text><text fill="#B2FFFF" fill-opacity="0.701961" font-family="Microsoft YaHei,Microsoft YaHei_MSFontService,Arial" font-weight="400" font-size="23.3333" transform="translate(516.251 472)">升压站与送出线路：在风电场内建设升压站，将电压</text><text fill="#B2FFFF" fill-opacity="0.701961" font-family="Microsoft YaHei,Microsoft YaHei_MSFontService,Arial" font-weight="400" font-size="23.3333" transform="translate(516.251 506)">从低压（如</text><text fill="#B2FFFF" fill-opacity="0.701961" font-family="Calibri,Calibri_MSFontService,Arial" font-weight="400" font-size="23.3333" transform="translate(632.917 506)">35kV</text><text fill="#B2FFFF" fill-opacity="0.701961" font-family="Microsoft YaHei,Microsoft YaHei_MSFontService,Arial" font-weight="400" font-size="23.3333" transform="translate(680.626 506)">）升至高压（如</text><text fill="#B2FFFF" fill-opacity="0.701961" font-family="Calibri,Calibri_MSFontService,Arial" font-weight="400" font-size="23.3333" transform="translate(843.959 506)">110kV</text><text fill="#B2FFFF" fill-opacity="0.701961" font-family="Microsoft YaHei,Microsoft YaHei_MSFontService,Arial" font-weight="400" font-size="23.3333" transform="translate(903.543 506)">或</text><text fill="#B2FFFF" fill-opacity="0.701961" font-family="Calibri,Calibri_MSFontService,Arial" font-weight="400" font-size="23.3333" transform="translate(926.876 506)">220kV</text><text fill="#B2FFFF" fill-opacity="0.701961" font-family="Microsoft YaHei,Microsoft YaHei_MSFontService,Arial" font-weight="400" font-size="23.3333" transform="translate(986.459 506)">），然</text><text fill="#B2FFFF" fill-opacity="0.701961" font-family="Microsoft YaHei,Microsoft YaHei_MSFontService,Arial" font-weight="400" font-size="23.3333" transform="translate(516.251 539)">后通过长距离输电线路接入区域电网。</text><text fill="#B2FFFF" fill-opacity="0.701961" font-family="Wingdings,Wingdings_MSFontService,Arial" font-weight="400" font-size="23.3333" transform="translate(474.334 294)"></text><text fill="#B2FFFF" fill-opacity="0.701961" font-family="Microsoft YaHei,Microsoft YaHei_MSFontService,Arial" font-weight="400" font-size="23.3333" transform="translate(511.834 294)">风机基础：采用扩展式钢筋混凝土基础，确保在复杂</text><text fill="#B2FFFF" fill-opacity="0.701961" font-family="Microsoft YaHei,Microsoft YaHei_MSFontService,Arial" font-weight="400" font-size="23.3333" transform="translate(511.834 328)">地质条件和极端风载下风机的稳定。</text><text fill="#B2FFFF" fill-opacity="0.701961" font-family="Wingdings,Wingdings_MSFontService,Arial" font-weight="400" font-size="23.3333" transform="translate(478.751 379)"></text><text fill="#B2FFFF" fill-opacity="0.701961" font-family="Microsoft YaHei,Microsoft YaHei_MSFontService,Arial" font-weight="400" font-size="23.3333" transform="translate(516.251 379)">集电线路：通过地下电缆或架空线，将各台风机的电</text><text fill="#B2FFFF" fill-opacity="0.701961" font-family="Microsoft YaHei,Microsoft YaHei_MSFontService,Arial" font-weight="400" font-size="23.3333" transform="translate(516.251 413)">力汇集到升压站。山地施工需防范滑坡和雷击。</text><path d="M976.691 454.521 993.597 400.287 1059.79 389.505 1093.04 435.57 1076.13 489.804 1009.93 500.586Z" stroke="url(#stroke8)" stroke-width="3.33333" stroke-miterlimit="8" fill="none" fill-rule="evenodd"/><path d="M960.476 636.154 986.984 551.119 1090.78 534.213 1142.9 606.441 1116.39 691.477 1012.6 708.383Z" stroke="url(#stroke9)" stroke-width="3.33333" stroke-miterlimit="8" fill="none" fill-rule="evenodd"/><path d="M895.604 546.123 919.694 468.845 1014.02 453.482 1061.38 519.121 1037.29 596.399 942.972 611.762Z" stroke="url(#stroke10)" stroke-width="3.33333" stroke-miterlimit="8" fill="none" fill-rule="evenodd"/><g filter="url(#fx2)" transform="translate(62 171)"><g><path d="M8 26.2964C8 16.1916 16.1916 8 26.2964 8L365.704 8C375.808 8 384 16.1916 384 26.2964L384 503.704C384 513.808 375.808 522 365.704 522L26.2964 522C16.1916 522 8 513.808 8 503.704Z" fill="#FFFFFF" fill-rule="evenodd"/></g></g><path d="M70 192.296C70 182.192 78.1916 174 88.2964 174L427.704 174C437.808 174 446 182.192 446 192.296L446 669.704C446 679.808 437.808 688 427.704 688L88.2964 688C78.1916 688 70 679.808 70 669.704Z" fill="#FFFFFF" fill-rule="evenodd"/><g filter="url(#fx3)" transform="matrix(7.03448 0 0 6.98214 -50 140)"><g><path d="M23.9179 28C23.9179 25.8584 25.6411 24.1222 27.7668 24.1222L59.2332 24.1222C61.3589 24.1222 63.0821 25.8584 63.0821 28L63.0821 28C63.0821 30.1416 61.3589 31.8777 59.2332 31.8777L27.7668 31.8777C25.6411 31.8777 23.9179 30.1416 23.9179 28Z" fill="#FFFFFF" fill-rule="evenodd"/></g></g><path d="M111 335.5C111 319.76 123.76 307 139.5 307L372.5 307C388.24 307 401 319.76 401 335.5L401 335.5C401 351.24 388.24 364 372.5 364L139.5 364C123.76 364 111 351.24 111 335.5Z" fill="#FFFFFF" fill-rule="evenodd"/><text fill="#3A3838" font-family="Microsoft YaHei,Microsoft YaHei_MSFontService,Arial" font-weight="400" font-size="30" transform="translate(196.333 345)">设备维护</text><path d="M111 342.5C111 327.312 123.312 315 138.5 315 153.688 315 166 327.312 166 342.5 166 357.688 153.688 370 138.5 370 123.312 370 111 357.688 111 342.5Z" fill="#6187D3" fill-rule="evenodd" fill-opacity="0.301961"/><path d="M117 342.5C117 330.626 126.626 321 138.5 321 150.374 321 160 330.626 160 342.5 160 354.374 150.374 364 138.5 364 126.626 364 117 354.374 117 342.5Z" fill="#6187D3" fill-rule="evenodd"/><path d="M130.186 343.761 130.163 343.739 130.142 343.716 130.123 343.692 130.105 343.667 130.088 343.642 130.073 343.616 130.059 343.591 130.046 343.564 130.035 343.536 130.026 343.508 130.018 343.48 130.012 343.452 130.006 343.424 130.003 343.395 130.001 343.366 130 343.339 130.001 343.309 130.003 343.28 130.007 343.251 130.012 343.224 130.018 343.196 130.026 343.167 130.036 343.139 130.047 343.112 130.059 343.087 130.073 343.059 130.089 343.034 130.105 343.009 130.124 342.985 130.143 342.96 130.164 342.937 130.187 342.915 131.787 341.421 131.81 341.399 131.835 341.38 131.861 341.361 131.887 341.345 131.914 341.328 131.941 341.314 131.969 341.301 131.998 341.29 132.027 341.28 132.057 341.27 132.087 341.263 132.117 341.258 132.147 341.253 132.178 341.249 132.209 341.247 132.239 341.246 132.27 341.247 132.301 341.249 132.331 341.253 132.362 341.258 132.392 341.263 132.422 341.27 132.452 341.28 132.481 341.29 132.509 341.301 132.538 341.314 132.565 341.328 132.592 341.345 132.618 341.361 132.644 341.38 132.668 341.399 132.692 341.42 135.29 343.842 135.314 343.862 135.339 343.882 135.364 343.901 135.39 343.918 135.417 343.933 135.445 343.947 135.473 343.96 135.502 343.971 135.531 343.982 135.56 343.991 135.59 343.998 135.62 344.004 135.651 344.009 135.681 344.013 135.712 344.015 135.743 344.016 135.773 344.015 135.804 344.013 135.835 344.009 135.865 344.004 135.895 343.997 135.925 343.99 135.955 343.982 135.984 343.971 136.012 343.96 136.041 343.947 136.068 343.932 136.095 343.917 136.121 343.9 136.147 343.881 136.171 343.861 136.195 343.841 143.314 337.176 143.338 337.154 143.363 337.134 143.388 337.116 143.414 337.099 143.441 337.083 143.469 337.069 143.497 337.056 143.526 337.044 143.555 337.033 143.584 337.025 143.614 337.018 143.644 337.011 143.675 337.007 143.705 337.003 143.736 337.001 143.767 337 143.798 337.001 143.828 337.003 143.859 337.006 143.889 337.01 143.92 337.017 143.95 337.024 143.979 337.032 144.008 337.043 144.037 337.054 144.065 337.068 144.093 337.082 144.12 337.097 144.146 337.114 144.172 337.133 144.196 337.152 144.22 337.172 145.812 338.649 145.835 338.672 145.856 338.695 145.876 338.719 145.894 338.743 145.911 338.768 145.926 338.793 145.94 338.82 145.953 338.847 145.964 338.873 145.973 338.9 145.981 338.929 145.988 338.957 145.993 338.986 145.997 339.013 145.999 339.043 146 339.072 145.999 339.1 145.997 339.128 145.994 339.157 145.989 339.186 145.982 339.214 145.974 339.241 145.965 339.269 145.954 339.296 145.941 339.323 145.928 339.349 145.912 339.376 145.896 339.401 145.877 339.425 145.858 339.448 145.837 339.471 145.814 339.494 137.181 347.577 137.157 347.599 137.131 347.62 137.105 347.641 137.077 347.662 137.048 347.682 137.018 347.702 136.987 347.722 136.955 347.741 136.922 347.76 136.888 347.778 136.854 347.795 136.819 347.813 136.783 347.83 136.747 347.846 136.711 347.861 136.674 347.876 136.636 347.89 136.599 347.903 136.561 347.916 136.524 347.927 136.486 347.938 136.448 347.949 136.41 347.958 136.373 347.967 136.336 347.974 136.299 347.981 136.263 347.987 136.227 347.992 136.191 347.995 136.156 347.998 136.122 347.999 136.089 348 135.343 348 135.31 347.999 135.276 347.998 135.241 347.995 135.205 347.992 135.169 347.987 135.133 347.981 135.096 347.974 135.059 347.967 135.022 347.958 134.984 347.949 134.946 347.938 134.909 347.927 134.871 347.915 134.833 347.903 134.796 347.89 134.758 347.876 134.722 347.861 134.685 347.845 134.649 347.83 134.613 347.812 134.578 347.795 134.544 347.778 134.51 347.759 134.477 347.741 134.445 347.722 134.414 347.702 134.384 347.681 134.355 347.661 134.328 347.641 134.301 347.62 134.276 347.599 134.252 347.576 130.186 343.761Z" fill="#FFFFFF" fill-rule="evenodd"/><text fill="#6187D3" font-family="Microsoft YaHei,Microsoft YaHei_MSFontService,Arial" font-weight="400" font-size="30" transform="translate(486.25 801)">特殊运维手段</text><text fill="#3A3838" fill-opacity="0.701961" font-family="Microsoft YaHei,Microsoft YaHei_MSFontService,Arial" font-weight="400" font-size="23.3333" transform="translate(146.497 479)">利用振动监测、油液分</text><text fill="#3A3838" fill-opacity="0.701961" font-family="Microsoft YaHei,Microsoft YaHei_MSFontService,Arial" font-weight="400" font-size="23.3333" transform="translate(146.497 513)">析等技术，实时监控风</text><text fill="#3A3838" fill-opacity="0.701961" font-family="Microsoft YaHei,Microsoft YaHei_MSFontService,Arial" font-weight="400" font-size="23.3333" transform="translate(146.497 546)">机健康状态，在故障发</text><text fill="#3A3838" fill-opacity="0.701961" font-family="Microsoft YaHei,Microsoft YaHei_MSFontService,Arial" font-weight="400" font-size="23.3333" transform="translate(146.497 580)">生前进行干预，避免昂</text><text fill="#3A3838" fill-opacity="0.701961" font-family="Microsoft YaHei,Microsoft YaHei_MSFontService,Arial" font-weight="400" font-size="23.3333" transform="translate(181.497 614)">贵的上山维修。</text><path d="M278.146 245.612C269.131 245.612 261.683 252.988 261.683 262.306 261.683 271.235 269.131 279 278.146 279 287.553 279 295 271.235 295 262.306 295 252.988 287.553 245.612 278.146 245.612M276.186 270.071C268.347 263.471 268.347 263.471 268.347 263.471 271.482 259.588 271.482 259.588 271.482 259.588 276.186 263.471 276.186 263.471 276.186 263.471 285.593 255.318 285.593 255.318 285.593 255.318 288.729 259.2 288.729 259.2 288.729 259.2L276.186 270.071ZM258.548 262.306C258.548 267.353 260.508 272.012 263.643 275.506 261.683 276.282 260.116 277.059 258.156 277.447 256.98 273.953 253.452 271.235 249.533 271.235 245.613 271.235 242.085 273.953 240.91 277.447 237.774 276.671 235.03 275.506 232.678 273.953 234.246 270.847 233.462 266.576 230.719 263.859 227.975 261.141 223.663 260.365 220.136 261.918 218.96 259.588 217.784 256.871 217 253.765 220.528 252.6 222.879 249.106 222.879 245.224 222.879 241.341 220.528 237.847 217 236.682 217.784 233.965 218.96 231.247 220.136 228.529 223.663 230.082 227.975 229.694 230.719 226.588 233.462 223.871 234.246 219.6 232.678 216.494 235.03 214.941 237.774 213.776 240.91 213 242.085 216.494 245.613 219.212 249.533 219.212 253.452 219.212 256.98 216.494 258.156 213 260.9 213.776 263.643 214.941 266.387 216.494 264.819 219.6 265.211 223.871 268.347 226.588 271.09 229.694 275.01 230.082 278.538 228.529 280.106 231.247 281.281 233.965 282.065 236.682 279.322 237.459 277.362 239.788 276.186 242.506 272.266 242.894 268.739 244.447 265.603 247.165 265.603 246.388 265.603 246 265.603 245.224 265.603 236.294 258.548 229.306 249.533 229.306 240.518 229.306 233.07 236.294 233.07 245.224 233.07 254.153 240.518 261.141 249.533 261.141 253.06 261.141 256.196 260.365 258.94 258.424 258.548 259.588 258.548 260.753 258.548 262.306M249.533 230.859C241.302 230.859 234.638 237.071 234.638 245.224 234.638 253.376 241.302 259.588 249.533 259.588 253.452 259.588 256.98 258.035 259.332 255.706 260.508 253.376 261.683 251.047 263.643 248.718 264.035 247.553 264.035 246.388 264.035 245.224 264.035 237.071 257.764 230.859 249.533 230.859M249.533 254.929C244.045 254.929 239.734 250.659 239.734 245.224 239.734 239.788 244.045 235.518 249.533 235.518 255.02 235.518 259.332 239.788 259.332 245.224 259.332 250.659 255.02 254.929 249.533 254.929" fill="#B2FFFF" fill-rule="evenodd"/><g filter="url(#fx4)" transform="translate(1171 171)"><g><path d="M8 26.2964C8 16.1916 16.1916 8 26.2964 8L365.704 8C375.808 8 384 16.1916 384 26.2964L384 503.704C384 513.808 375.808 522 365.704 522L26.2964 522C16.1916 522 8 513.808 8 503.704Z" fill="#FFFFFF" fill-rule="evenodd"/></g></g><path d="M1179 192.296C1179 182.192 1187.19 174 1197.3 174L1536.7 174C1546.81 174 1555 182.192 1555 192.296L1555 669.704C1555 679.808 1546.81 688 1536.7 688L1197.3 688C1187.19 688 1179 679.808 1179 669.704Z" fill="#FFFFFF" fill-rule="evenodd"/><g filter="url(#fx5)" transform="matrix(7.03448 0 0 6.98214 1056 140)"><g clip-path="url(#clip11)"><path d="M23.9179 28C23.9179 25.8584 25.6411 24.1222 27.7668 24.1222L59.2332 24.1222C61.3589 24.1222 63.0821 25.8584 63.0821 28L63.0821 28C63.0821 30.1416 61.3589 31.8777 59.2332 31.8777L27.7668 31.8777C25.6411 31.8777 23.9179 30.1416 23.9179 28Z" fill="#FFFFFF" fill-rule="evenodd"/></g></g><path d="M1217 335.5C1217 319.76 1229.76 307 1245.5 307L1478.5 307C1494.24 307 1507 319.76 1507 335.5L1507 335.5C1507 351.24 1494.24 364 1478.5 364L1245.5 364C1229.76 364 1217 351.24 1217 335.5Z" fill="#FFFFFF" fill-rule="evenodd"/><text fill="#3A3838" font-family="Microsoft YaHei,Microsoft YaHei_MSFontService,Arial" font-weight="400" font-size="30" transform="translate(1302 345)">设备维护</text><path d="M1217 342.5C1217 327.312 1229.09 315 1244 315 1258.91 315 1271 327.312 1271 342.5 1271 357.688 1258.91 370 1244 370 1229.09 370 1217 357.688 1217 342.5Z" fill="#6187D3" fill-rule="evenodd" fill-opacity="0.301961"/><path d="M1223 342.5C1223 330.626 1232.4 321 1244 321 1255.6 321 1265 330.626 1265 342.5 1265 354.374 1255.6 364 1244 364 1232.4 364 1223 354.374 1223 342.5Z" fill="#6187D3" fill-rule="evenodd"/><path d="M1236.19 343.761 1236.16 343.739 1236.14 343.716 1236.12 343.692 1236.11 343.667 1236.09 343.642 1236.07 343.616 1236.06 343.591 1236.05 343.564 1236.03 343.536 1236.03 343.508 1236.02 343.48 1236.01 343.452 1236.01 343.424 1236 343.395 1236 343.366 1236 343.339 1236 343.309 1236 343.28 1236.01 343.251 1236.01 343.224 1236.02 343.196 1236.03 343.167 1236.04 343.139 1236.05 343.112 1236.06 343.087 1236.07 343.059 1236.09 343.034 1236.11 343.009 1236.12 342.985 1236.14 342.96 1236.16 342.937 1236.19 342.915 1237.79 341.421 1237.81 341.399 1237.84 341.38 1237.86 341.361 1237.89 341.345 1237.91 341.328 1237.94 341.314 1237.97 341.301 1238 341.29 1238.03 341.28 1238.06 341.27 1238.09 341.263 1238.12 341.258 1238.15 341.253 1238.18 341.249 1238.21 341.247 1238.24 341.246 1238.27 341.247 1238.3 341.249 1238.33 341.253 1238.36 341.258 1238.39 341.263 1238.42 341.27 1238.45 341.28 1238.48 341.29 1238.51 341.301 1238.54 341.314 1238.57 341.328 1238.59 341.345 1238.62 341.361 1238.64 341.38 1238.67 341.399 1238.69 341.42 1241.29 343.842 1241.31 343.862 1241.34 343.882 1241.36 343.901 1241.39 343.918 1241.42 343.933 1241.45 343.947 1241.47 343.96 1241.5 343.971 1241.53 343.982 1241.56 343.991 1241.59 343.998 1241.62 344.004 1241.65 344.009 1241.68 344.013 1241.71 344.015 1241.74 344.016 1241.77 344.015 1241.8 344.013 1241.84 344.009 1241.87 344.004 1241.89 343.997 1241.92 343.99 1241.96 343.982 1241.98 343.971 1242.01 343.96 1242.04 343.947 1242.07 343.932 1242.1 343.917 1242.12 343.9 1242.15 343.881 1242.17 343.861 1242.2 343.841 1249.31 337.176 1249.34 337.154 1249.36 337.134 1249.39 337.116 1249.41 337.099 1249.44 337.083 1249.47 337.069 1249.5 337.056 1249.53 337.044 1249.55 337.033 1249.58 337.025 1249.61 337.018 1249.64 337.011 1249.67 337.007 1249.71 337.003 1249.74 337.001 1249.77 337 1249.8 337.001 1249.83 337.003 1249.86 337.006 1249.89 337.01 1249.92 337.017 1249.95 337.024 1249.98 337.032 1250.01 337.043 1250.04 337.054 1250.07 337.068 1250.09 337.082 1250.12 337.097 1250.15 337.114 1250.17 337.133 1250.2 337.152 1250.22 337.172 1251.81 338.649 1251.84 338.672 1251.86 338.695 1251.88 338.719 1251.89 338.743 1251.91 338.768 1251.93 338.793 1251.94 338.82 1251.95 338.847 1251.96 338.873 1251.97 338.9 1251.98 338.929 1251.99 338.957 1251.99 338.986 1252 339.013 1252 339.043 1252 339.072 1252 339.1 1252 339.128 1251.99 339.157 1251.99 339.186 1251.98 339.214 1251.97 339.241 1251.97 339.269 1251.95 339.296 1251.94 339.323 1251.93 339.349 1251.91 339.376 1251.9 339.401 1251.88 339.425 1251.86 339.448 1251.84 339.471 1251.81 339.494 1243.18 347.577 1243.16 347.599 1243.13 347.62 1243.11 347.641 1243.08 347.662 1243.05 347.682 1243.02 347.702 1242.99 347.722 1242.96 347.741 1242.92 347.76 1242.89 347.778 1242.85 347.795 1242.82 347.813 1242.78 347.83 1242.75 347.846 1242.71 347.861 1242.67 347.876 1242.64 347.89 1242.6 347.903 1242.56 347.916 1242.52 347.927 1242.49 347.938 1242.45 347.949 1242.41 347.958 1242.37 347.967 1242.34 347.974 1242.3 347.981 1242.26 347.987 1242.23 347.992 1242.19 347.995 1242.16 347.998 1242.12 347.999 1242.09 348 1241.34 348 1241.31 347.999 1241.28 347.998 1241.24 347.995 1241.21 347.992 1241.17 347.987 1241.13 347.981 1241.1 347.974 1241.06 347.967 1241.02 347.958 1240.98 347.949 1240.95 347.938 1240.91 347.927 1240.87 347.915 1240.83 347.903 1240.8 347.89 1240.76 347.876 1240.72 347.861 1240.68 347.845 1240.65 347.83 1240.61 347.812 1240.58 347.795 1240.54 347.778 1240.51 347.759 1240.48 347.741 1240.45 347.722 1240.41 347.702 1240.38 347.681 1240.36 347.661 1240.33 347.641 1240.3 347.62 1240.28 347.599 1240.25 347.576 1236.19 343.761Z" fill="#FFFFFF" fill-rule="evenodd"/><text fill="#6187D3" font-family="Microsoft YaHei,Microsoft YaHei_MSFontService,Arial" font-weight="400" font-size="30" transform="translate(1302.17 417)">智能运维平台</text><text fill="#3A3838" fill-opacity="0.701961" font-family="Microsoft YaHei,Microsoft YaHei_MSFontService,Arial" font-weight="400" font-size="23.3333" transform="translate(1243.38 479)">集成</text><text fill="#3A3838" fill-opacity="0.701961" font-family="Calibri,Calibri_MSFontService,Arial" font-weight="400" font-size="23.3333" transform="translate(1290.04 479)">SCADA</text><text fill="#3A3838" fill-opacity="0.701961" font-family="Microsoft YaHei,Microsoft YaHei_MSFontService,Arial" font-weight="400" font-size="23.3333" transform="translate(1354.28 479)">系统、天气预</text><text fill="#3A3838" fill-opacity="0.701961" font-family="Microsoft YaHei,Microsoft YaHei_MSFontService,Arial" font-weight="400" font-size="23.3333" transform="translate(1252.17 513)">报和道路监控系统，科</text><text fill="#3A3838" fill-opacity="0.701961" font-family="Microsoft YaHei,Microsoft YaHei_MSFontService,Arial" font-weight="400" font-size="23.3333" transform="translate(1252.17 546)">学规划运维人员和车辆</text><text fill="#3A3838" fill-opacity="0.701961" font-family="Microsoft YaHei,Microsoft YaHei_MSFontService,Arial" font-weight="400" font-size="23.3333" transform="translate(1252.17 580)">的出行时间，避开恶劣</text><text fill="#3A3838" fill-opacity="0.701961" font-family="Microsoft YaHei,Microsoft YaHei_MSFontService,Arial" font-weight="400" font-size="23.3333" transform="translate(1263.83 614)">天气和道路危险期。</text><path d="M1384.15 261.106C1375.13 261.106 1367.68 268.594 1367.68 278.053 1367.68 287.118 1375.13 295 1384.15 295 1393.55 295 1401 287.118 1401 278.053 1401 268.594 1393.55 261.106 1384.15 261.106M1382.19 285.935C1374.35 279.235 1374.35 279.235 1374.35 279.235 1377.48 275.294 1377.48 275.294 1377.48 275.294 1382.19 279.235 1382.19 279.235 1382.19 279.235 1391.59 270.959 1391.59 270.959 1391.59 270.959 1394.73 274.9 1394.73 274.9 1394.73 274.9L1382.19 285.935ZM1364.55 278.053C1364.55 283.176 1366.51 287.906 1369.64 291.453 1367.68 292.241 1366.12 293.029 1364.16 293.424 1362.98 289.876 1359.45 287.118 1355.53 287.118 1351.61 287.118 1348.09 289.876 1346.91 293.424 1343.77 292.635 1341.03 291.453 1338.68 289.876 1340.25 286.724 1339.46 282.388 1336.72 279.629 1333.97 276.871 1329.66 276.082 1326.14 277.659 1324.96 275.294 1323.78 272.535 1323 269.382 1326.53 268.2 1328.88 264.653 1328.88 260.712 1328.88 256.771 1326.53 253.224 1323 252.041 1323.78 249.282 1324.96 246.524 1326.14 243.765 1329.66 245.341 1333.97 244.947 1336.72 241.794 1339.46 239.035 1340.25 234.7 1338.68 231.547 1341.03 229.971 1343.77 228.788 1346.91 228 1348.09 231.547 1351.61 234.306 1355.53 234.306 1359.45 234.306 1362.98 231.547 1364.16 228 1366.9 228.788 1369.64 229.971 1372.39 231.547 1370.82 234.7 1371.21 239.035 1374.35 241.794 1377.09 244.947 1381.01 245.341 1384.54 243.765 1386.11 246.524 1387.28 249.282 1388.07 252.041 1385.32 252.829 1383.36 255.194 1382.19 257.953 1378.27 258.347 1374.74 259.924 1371.6 262.682 1371.6 261.894 1371.6 261.5 1371.6 260.712 1371.6 251.647 1364.55 244.553 1355.53 244.553 1346.52 244.553 1339.07 251.647 1339.07 260.712 1339.07 269.776 1346.52 276.871 1355.53 276.871 1359.06 276.871 1362.2 276.082 1364.94 274.112 1364.55 275.294 1364.55 276.476 1364.55 278.053M1355.53 246.129C1347.3 246.129 1340.64 252.435 1340.64 260.712 1340.64 268.988 1347.3 275.294 1355.53 275.294 1359.45 275.294 1362.98 273.718 1365.33 271.353 1366.51 268.988 1367.68 266.624 1369.64 264.259 1370.04 263.076 1370.04 261.894 1370.04 260.712 1370.04 252.435 1363.76 246.129 1355.53 246.129M1355.53 270.565C1350.05 270.565 1345.73 266.229 1345.73 260.712 1345.73 255.194 1350.05 250.859 1355.53 250.859 1361.02 250.859 1365.33 255.194 1365.33 260.712 1365.33 266.229 1361.02 270.565 1355.53 270.565" fill="#B2FFFF" fill-rule="evenodd"/><path d="M403.146 764.106C394.131 764.106 386.683 771.594 386.683 781.053 386.683 790.118 394.131 798 403.146 798 412.553 798 420 790.118 420 781.053 420 771.594 412.553 764.106 403.146 764.106M401.186 788.935C393.347 782.235 393.347 782.235 393.347 782.235 396.482 778.294 396.482 778.294 396.482 778.294 401.186 782.235 401.186 782.235 401.186 782.235 410.593 773.959 410.593 773.959 410.593 773.959 413.729 777.9 413.729 777.9 413.729 777.9L401.186 788.935ZM383.548 781.053C383.548 786.176 385.508 790.906 388.643 794.453 386.683 795.241 385.116 796.029 383.156 796.424 381.98 792.876 378.452 790.118 374.533 790.118 370.613 790.118 367.085 792.876 365.91 796.424 362.774 795.635 360.03 794.453 357.678 792.876 359.246 789.724 358.462 785.388 355.719 782.629 352.975 779.871 348.663 779.082 345.136 780.659 343.96 778.294 342.784 775.535 342 772.382 345.528 771.2 347.879 767.653 347.879 763.712 347.879 759.771 345.528 756.224 342 755.041 342.784 752.282 343.96 749.524 345.136 746.765 348.663 748.341 352.975 747.947 355.719 744.794 358.462 742.035 359.246 737.7 357.678 734.547 360.03 732.971 362.774 731.788 365.91 731 367.085 734.547 370.613 737.306 374.533 737.306 378.452 737.306 381.98 734.547 383.156 731 385.9 731.788 388.643 732.971 391.387 734.547 389.819 737.7 390.211 742.035 393.347 744.794 396.09 747.947 400.01 748.341 403.538 746.765 405.106 749.524 406.281 752.282 407.065 755.041 404.322 755.829 402.362 758.194 401.186 760.953 397.266 761.347 393.739 762.924 390.603 765.682 390.603 764.894 390.603 764.5 390.603 763.712 390.603 754.647 383.548 747.553 374.533 747.553 365.518 747.553 358.07 754.647 358.07 763.712 358.07 772.776 365.518 779.871 374.533 779.871 378.06 779.871 381.196 779.082 383.94 777.112 383.548 778.294 383.548 779.476 383.548 781.053M374.533 749.129C366.302 749.129 359.638 755.435 359.638 763.712 359.638 771.988 366.302 778.294 374.533 778.294 378.452 778.294 381.98 776.718 384.332 774.353 385.508 771.988 386.683 769.624 388.643 767.259 389.035 766.076 389.035 764.894 389.035 763.712 389.035 755.435 382.764 749.129 374.533 749.129M374.533 773.565C369.045 773.565 364.734 769.229 364.734 763.712 364.734 758.194 369.045 753.859 374.533 753.859 380.02 753.859 384.332 758.194 384.332 763.712 384.332 769.229 380.02 773.565 374.533 773.565" fill="#B2FFFF" fill-rule="evenodd"/><g filter="url(#fx6)" transform="matrix(7.03448 0 0 6.98214 275 528)"><g clip-path="url(#clip12)"><path d="M23.9179 28C23.9179 25.8584 25.6411 24.1223 27.7668 24.1223L59.2332 24.1223C61.3589 24.1223 63.0821 25.8584 63.0821 28L63.0821 28C63.0821 30.1416 61.3589 31.8778 59.2332 31.8778L27.7668 31.8778C25.6411 31.8778 23.9179 30.1416 23.9179 28Z" fill="#FFFFFF" fill-rule="evenodd"/></g></g><path d="M436 723.5C436 707.76 448.76 695 464.5 695L697.5 695C713.24 695 726 707.76 726 723.5L726 723.5C726 739.24 713.24 752 697.5 752L464.5 752C448.76 752 436 739.24 436 723.5Z" fill="#FFFFFF" fill-rule="evenodd"/><text fill="#3A3838" font-family="Microsoft YaHei,Microsoft YaHei_MSFontService,Arial" font-weight="400" font-size="30" transform="translate(521.333 734)">设备维护</text><text fill="#6187D3" font-family="Microsoft YaHei,Microsoft YaHei_MSFontService,Arial" font-weight="400" font-size="30" transform="translate(204.997 434)">预测性维护</text><text fill="#3A3838" fill-opacity="0.701961" font-family="Calibri,Calibri_MSFontService,Arial" font-weight="400" font-size="23.3333" transform="translate(663.629 714)">·</text><text fill="#3A3838" fill-opacity="0.701961" font-family="Microsoft YaHei,Microsoft YaHei_MSFontService,Arial" font-weight="400" font-size="23.3333" transform="translate(674.671 714)">全地形车</text><text fill="#3A3838" fill-opacity="0.701961" font-family="Calibri,Calibri_MSFontService,Arial" font-weight="400" font-size="23.3333" transform="translate(768.004 714)">/</text><text fill="#3A3838" fill-opacity="0.701961" font-family="Microsoft YaHei,Microsoft YaHei_MSFontService,Arial" font-weight="400" font-size="23.3333" transform="translate(776.963 714)">直升机运维：在道路被冰雪或塌方阻断时，成为</text><text fill="#3A3838" fill-opacity="0.701961" font-family="Microsoft YaHei,Microsoft YaHei_MSFontService,Arial" font-weight="400" font-size="23.3333" transform="translate(871.963 748)">必要的应急手段。</text><text fill="#3A3838" fill-opacity="0.701961" font-family="Calibri,Calibri_MSFontService,Arial" font-weight="400" font-size="23.3333" transform="translate(673.312 781)">·</text><text fill="#3A3838" fill-opacity="0.701961" font-family="Microsoft YaHei,Microsoft YaHei_MSFontService,Arial" font-weight="400" font-size="23.3333" transform="translate(684.354 781)">无人机巡检：定期使用无人机对叶片、塔筒进行高清拍照</text><text fill="#3A3838" fill-opacity="0.701961" font-family="Microsoft YaHei,Microsoft YaHei_MSFontService,Arial" font-weight="400" font-size="23.3333" transform="translate(696.963 815)">和热成像扫描，高效发现表面损伤和内部结构缺陷。</text></g></svg>