<svg width="1600" height="900" xmlns="http://www.w3.org/2000/svg" xmlns:xlink="http://www.w3.org/1999/xlink" overflow="hidden"><g><rect x="0" y="0" width="1600" height="900" fill="#FAFAFA"/><rect x="727" y="157" width="146" height="6" fill="#6187D3"/><rect x="83" y="291" width="302" height="477" fill="#F2F2F2"/><path d="M385 256 385 400.89 234 442 83 400.89 83 256Z" fill="#6187D3" fill-rule="evenodd"/><text fill="#FFFFFF" font-family="Microsoft YaHei,Microsoft YaHei_MSFontService,Arial" font-weight="700" font-size="40" transform="translate(158.466 344)">Step 01</text><path d="M258.969 442.516C258.969 442 258.453 442 257.938 442 257.422 442 256.906 442 256.906 442.516 195.031 483.766 195.031 483.766 195.031 483.766 194.516 483.766 194 484.797 194 485.312 194 486.344 194.516 486.859 195.547 487.375 211.531 493.562 211.531 493.562 211.531 493.562 219.266 506.969 219.266 506.969 219.266 506.969 219.266 507.484 220.297 508 220.812 508 220.812 508 220.812 508 220.812 508 221.328 508 222.359 507.484 222.359 506.969 227 499.75 227 499.75 227 499.75 247.109 508 247.109 508 247.109 508 247.109 508 247.109 508 247.625 508 248.141 508 248.141 508 248.656 507.484 249.172 507.484 249.688 506.969 249.688 506.453 260 444.578 260 444.578 260 444.578 260 443.547 260 443.031 258.969 442.516ZM200.703 484.797C248.141 452.828 248.141 452.828 248.141 452.828 213.594 489.953 213.594 489.953 213.594 489.953 213.078 489.953 213.078 489.953 213.078 489.953L200.703 484.797ZM215.141 491.5C215.141 491.5 215.141 491.5 215.141 491.5 254.328 449.734 254.328 449.734 254.328 449.734 220.812 501.812 220.812 501.812 220.812 501.812L215.141 491.5ZM246.078 502.844C228.547 496.141 228.547 496.141 228.547 496.141 228.031 495.625 227.516 495.625 227 495.625 254.328 453.859 254.328 453.859 254.328 453.859L246.078 502.844Z" fill="#6187D3" fill-rule="evenodd"/><text fill="#9E9A9A" font-family="Microsoft YaHei,Microsoft YaHei_MSFontService,Arial" font-weight="400" font-size="23.3333" transform="translate(119.633 581)">用已知的气象站、卫星</text><text fill="#9E9A9A" font-family="Microsoft YaHei,Microsoft YaHei_MSFontService,Arial" font-weight="400" font-size="23.3333" transform="translate(119.633 623)">遥感数据，锁定风能潜</text><text fill="#9E9A9A" font-family="Microsoft YaHei,Microsoft YaHei_MSFontService,Arial" font-weight="400" font-size="23.3333" transform="translate(119.633 665)">力区。在香格里拉，这</text><text fill="#9E9A9A" font-family="Microsoft YaHei,Microsoft YaHei_MSFontService,Arial" font-weight="400" font-size="23.3333" transform="translate(119.633 707)">通常指向高耸的山脊、</text><text fill="#9E9A9A" font-family="Microsoft YaHei,Microsoft YaHei_MSFontService,Arial" font-weight="400" font-size="23.3333" transform="translate(166.299 749)">山梁和垭口。</text><text fill="#6C6969" font-family="Microsoft YaHei,Microsoft YaHei_MSFontService,Arial" font-weight="700" font-size="23.3333" transform="translate(163.757 536)">宏观资源分析</text><rect x="1195" y="255" width="302" height="513" fill="#F2F2F2"/><path d="M1497 255 1497 400.669 1346 442 1195 400.669 1195 255Z" fill="#B2FFFF" fill-rule="evenodd"/><text fill="#FFFFFF" font-family="Microsoft YaHei,Microsoft YaHei_MSFontService,Arial" font-weight="700" font-size="40" transform="translate(1270.44 343)">Step 04</text><path d="M1327.2 456.062C1327.2 449.031 1327.2 449.031 1327.2 449.031 1327.2 444.93 1324.2 442 1320 442 1315.8 442 1312.8 444.93 1312.8 449.031 1312.8 456.062 1312.8 456.062 1312.8 456.062 1309.8 458.406 1308 461.336 1308 465.438 1308 469.539 1309.8 472.469 1312.8 474.812 1312.8 509.969 1312.8 509.969 1312.8 509.969 1312.8 514.07 1315.8 517 1320 517 1324.2 517 1327.2 514.07 1327.2 509.969 1327.2 474.812 1327.2 474.812 1327.2 474.812 1330.2 472.469 1332 469.539 1332 465.438 1332 461.336 1330.2 458.406 1327.2 456.062ZM1317.6 449.031C1317.6 447.859 1318.8 446.688 1320 446.688 1321.2 446.688 1322.4 447.859 1322.4 449.031 1322.4 453.719 1322.4 453.719 1322.4 453.719 1321.8 453.719 1320.6 453.719 1320 453.719 1319.4 453.719 1318.2 453.719 1317.6 453.719L1317.6 449.031ZM1322.4 509.969C1322.4 511.141 1321.2 512.312 1320 512.312 1318.8 512.312 1317.6 511.141 1317.6 509.969 1317.6 477.156 1317.6 477.156 1317.6 477.156 1318.2 477.156 1319.4 477.156 1320 477.156 1320.6 477.156 1321.8 477.156 1322.4 477.156L1322.4 509.969ZM1326.6 467.195C1326.6 467.781 1326.6 467.781 1326.6 467.781 1326.6 468.367 1326 468.953 1326 469.539 1326 469.539 1326 469.539 1326 469.539 1325.4 470.125 1324.8 470.711 1324.2 471.297 1324.2 471.297 1324.2 471.297 1324.2 471.297 1323.6 471.297 1323 471.883 1322.4 471.883 1321.8 472.469 1320.6 472.469 1320 472.469 1319.4 472.469 1318.2 472.469 1317.6 471.883 1317 471.883 1316.4 471.297 1315.8 471.297 1315.8 471.297 1315.8 471.297 1315.8 471.297 1315.2 470.711 1314.6 470.125 1314 469.539 1314 469.539 1314 469.539 1314 469.539 1314 468.953 1313.4 468.367 1313.4 467.781 1313.4 467.781 1313.4 467.781 1313.4 467.195 1312.8 466.609 1312.8 466.023 1312.8 465.438 1312.8 464.852 1312.8 464.266 1313.4 463.68 1313.4 463.094 1313.4 463.094 1313.4 463.094 1313.4 462.508 1314 461.922 1314 461.336 1314 461.336 1314 461.336 1314 461.336 1314.6 460.75 1315.2 460.164 1315.8 459.578 1315.8 459.578 1315.8 459.578 1315.8 459.578 1316.4 459.578 1317 458.992 1317.6 458.992 1318.2 458.406 1319.4 458.406 1320 458.406 1320.6 458.406 1321.8 458.406 1322.4 458.992 1323 458.992 1323.6 459.578 1324.2 459.578 1324.2 459.578 1324.2 459.578 1324.2 459.578 1324.8 460.164 1325.4 460.75 1326 461.336 1326 461.336 1326 461.336 1326 461.336 1326 461.922 1326.6 462.508 1326.6 463.094 1326.6 463.094 1326.6 463.094 1326.6 463.68 1327.2 464.266 1327.2 464.852 1327.2 465.438 1327.2 466.023 1327.2 466.609 1326.6 467.195Z" fill="#B2FFFF" fill-rule="evenodd"/><path d="M1378.4 456.062C1378.4 449.031 1378.4 449.031 1378.4 449.031 1378.4 444.93 1375.53 442 1371.5 442 1367.47 442 1364.6 444.93 1364.6 449.031 1364.6 456.062 1364.6 456.062 1364.6 456.062 1361.72 458.406 1360 461.336 1360 465.438 1360 469.539 1361.72 472.469 1364.6 474.812 1364.6 509.969 1364.6 509.969 1364.6 509.969 1364.6 514.07 1367.47 517 1371.5 517 1375.53 517 1378.4 514.07 1378.4 509.969 1378.4 474.812 1378.4 474.812 1378.4 474.812 1381.28 472.469 1383 469.539 1383 465.438 1383 461.336 1381.28 458.406 1378.4 456.062ZM1369.2 449.031C1369.2 447.859 1370.35 446.688 1371.5 446.688 1372.65 446.688 1373.8 447.859 1373.8 449.031 1373.8 453.719 1373.8 453.719 1373.8 453.719 1373.22 453.719 1372.07 453.719 1371.5 453.719 1370.93 453.719 1369.78 453.719 1369.2 453.719L1369.2 449.031ZM1373.8 509.969C1373.8 511.141 1372.65 512.312 1371.5 512.312 1370.35 512.312 1369.2 511.141 1369.2 509.969 1369.2 477.156 1369.2 477.156 1369.2 477.156 1369.78 477.156 1370.93 477.156 1371.5 477.156 1372.07 477.156 1373.22 477.156 1373.8 477.156L1373.8 509.969ZM1377.82 467.195C1377.82 467.781 1377.82 467.781 1377.82 467.781 1377.82 468.367 1377.25 468.953 1377.25 469.539 1377.25 469.539 1377.25 469.539 1377.25 469.539 1376.68 470.125 1376.1 470.711 1375.53 471.297 1375.53 471.297 1375.53 471.297 1375.53 471.297 1374.95 471.297 1374.38 471.883 1373.8 471.883 1373.22 472.469 1372.07 472.469 1371.5 472.469 1370.93 472.469 1369.78 472.469 1369.2 471.883 1368.62 471.883 1368.05 471.297 1367.47 471.297 1367.47 471.297 1367.47 471.297 1367.47 471.297 1366.9 470.711 1366.32 470.125 1365.75 469.539 1365.75 469.539 1365.75 469.539 1365.75 469.539 1365.75 468.953 1365.18 468.367 1365.18 467.781 1365.18 467.781 1365.18 467.781 1365.18 467.195 1364.6 466.609 1364.6 466.023 1364.6 465.438 1364.6 464.852 1364.6 464.266 1365.18 463.68 1365.18 463.094 1365.18 463.094 1365.18 463.094 1365.18 462.508 1365.75 461.922 1365.75 461.336 1365.75 461.336 1365.75 461.336 1365.75 461.336 1366.32 460.75 1366.9 460.164 1367.47 459.578 1367.47 459.578 1367.47 459.578 1367.47 459.578 1368.05 459.578 1368.62 458.992 1369.2 458.992 1369.78 458.406 1370.93 458.406 1371.5 458.406 1372.07 458.406 1373.22 458.406 1373.8 458.992 1374.38 458.992 1374.95 459.578 1375.53 459.578 1375.53 459.578 1375.53 459.578 1375.53 459.578 1376.1 460.164 1376.68 460.75 1377.25 461.336 1377.25 461.336 1377.25 461.336 1377.25 461.336 1377.25 461.922 1377.82 462.508 1377.82 463.094 1377.82 463.094 1377.82 463.094 1377.82 463.68 1378.4 464.266 1378.4 464.852 1378.4 465.438 1378.4 466.023 1378.4 466.609 1377.82 467.195Z" fill="#B2FFFF" fill-rule="evenodd"/><path d="M1353.2 484.188C1353.2 449.031 1353.2 449.031 1353.2 449.031 1353.2 444.93 1350.2 442 1346 442 1341.8 442 1338.8 444.93 1338.8 449.031 1338.8 484.188 1338.8 484.188 1338.8 484.188 1335.8 486.531 1334 489.461 1334 493.562 1334 497.664 1335.8 500.594 1338.8 502.938 1338.8 509.969 1338.8 509.969 1338.8 509.969 1338.8 514.07 1341.8 517 1346 517 1350.2 517 1353.2 514.07 1353.2 509.969 1353.2 502.938 1353.2 502.938 1353.2 502.938 1356.2 500.594 1358 497.664 1358 493.562 1358 489.461 1356.2 486.531 1353.2 484.188ZM1343.6 449.031C1343.6 447.859 1344.8 446.688 1346 446.688 1347.2 446.688 1348.4 447.859 1348.4 449.031 1348.4 481.844 1348.4 481.844 1348.4 481.844 1347.8 481.844 1346.6 481.844 1346 481.844 1345.4 481.844 1344.2 481.844 1343.6 481.844L1343.6 449.031ZM1348.4 509.969C1348.4 511.141 1347.2 512.312 1346 512.312 1344.8 512.312 1343.6 511.141 1343.6 509.969 1343.6 505.281 1343.6 505.281 1343.6 505.281 1344.2 505.281 1345.4 505.281 1346 505.281 1346.6 505.281 1347.8 505.281 1348.4 505.281L1348.4 509.969ZM1352.6 495.32C1352.6 495.906 1352.6 495.906 1352.6 495.906 1352.6 496.492 1352 497.078 1352 497.664 1352 497.664 1352 497.664 1352 497.664 1351.4 498.25 1350.8 498.836 1350.2 499.422 1350.2 499.422 1350.2 499.422 1350.2 499.422 1349.6 499.422 1349 500.008 1348.4 500.008 1347.8 500.594 1346.6 500.594 1346 500.594 1345.4 500.594 1344.2 500.594 1343.6 500.008 1343 500.008 1342.4 499.422 1341.8 499.422 1341.8 499.422 1341.8 499.422 1341.8 499.422 1341.2 498.836 1340.6 498.25 1340 497.664 1340 497.664 1340 497.664 1340 497.664 1340 497.078 1339.4 496.492 1339.4 495.906 1339.4 495.906 1339.4 495.906 1339.4 495.32 1338.8 494.734 1338.8 494.148 1338.8 493.562 1338.8 492.977 1338.8 492.391 1339.4 491.805 1339.4 491.219 1339.4 491.219 1339.4 491.219 1339.4 490.633 1340 490.047 1340 489.461 1340 489.461 1340 489.461 1340 489.461 1340.6 488.875 1341.2 488.289 1341.8 487.703 1341.8 487.703 1341.8 487.703 1341.8 487.703 1342.4 487.703 1343 487.117 1343.6 487.117 1344.2 486.531 1345.4 486.531 1346 486.531 1346.6 486.531 1347.8 486.531 1348.4 487.117 1349 487.117 1349.6 487.703 1350.2 487.703 1350.2 487.703 1350.2 487.703 1350.2 487.703 1350.8 488.289 1351.4 488.875 1352 489.461 1352 489.461 1352 489.461 1352 489.461 1352 490.047 1352.6 490.633 1352.6 491.219 1352.6 491.219 1352.6 491.219 1352.6 491.805 1353.2 492.391 1353.2 492.977 1353.2 493.562 1353.2 494.148 1353.2 494.734 1352.6 495.32Z" fill="#B2FFFF" fill-rule="evenodd"/><rect x="833" y="256" width="303" height="512" fill="#F2F2F2"/><path d="M1136 256 1136 400.89 984.5 442 833 400.89 833 256Z" fill="#76CFF5" fill-rule="evenodd"/><text fill="#FFFFFF" font-family="Microsoft YaHei,Microsoft YaHei_MSFontService,Arial" font-weight="700" font-size="40" transform="translate(906.767 344)">Step 03</text><path d="M1003.91 463.094C1003.91 469.539 999.217 474.812 999.217 474.812 999.217 463.094 989.826 453.719 989.826 453.719 989.826 453.719 989.826 460.75 985.13 467.781 980.435 451.375 966.348 442 966.348 442 973.391 467.781 964 477.156 964 495.906 964 506.453 973.391 517 987.478 517 1008.61 517 1012.72 509.383 1014.48 500.594 1018 488.875 1013.3 474.812 1003.91 463.094ZM1010.37 499.422C1008.61 505.281 1006.85 512.312 987.478 512.312 975.739 512.312 968.696 504.109 968.696 495.906 968.696 489.461 969.87 484.188 971.043 478.914 972.804 471.883 973.978 464.852 973.391 455.477 981.022 465.438 983.37 478.914 983.37 478.914 983.37 478.914 989.826 469.539 991.587 464.852 993.348 467.781 994.522 477.156 994.522 486.531 994.522 486.531 1000.98 481.258 1005.67 473.641 1010.37 482.43 1012.13 491.805 1010.37 499.422Z" fill="#76CFF5" fill-rule="evenodd"/><rect x="472" y="255" width="302" height="513" fill="#F2F2F2"/><path d="M774 255 774 400.669 623 442 472 400.669 472 255Z" fill="#D6D8EF" fill-rule="evenodd"/><text fill="#FFFFFF" font-family="Microsoft YaHei,Microsoft YaHei_MSFontService,Arial" font-weight="700" font-size="40" transform="translate(547.668 343)">Step 02</text><path d="M652.417 472.125C652.417 471.562 651.25 471 650.667 471 648.333 471 648.333 471 648.333 471 647.167 471 646 472.125 646 473.25 646 486.75 646 486.75 646 486.75 646 487.875 647.167 489 648.333 489 657.667 489 657.667 489 657.667 489 658.833 489 660 487.875 660 486.75 660 483.375 660 483.375 660 483.375 660 482.812 660 482.25 659.417 482.25L652.417 472.125ZM657.667 486.75C648.333 486.75 648.333 486.75 648.333 486.75 648.333 473.25 648.333 473.25 648.333 473.25 650.667 473.25 650.667 473.25 650.667 473.25 657.667 483.375 657.667 483.375 657.667 483.375L657.667 486.75Z" fill="#D6D8EF" fill-rule="evenodd"/><path d="M667.828 480.74C658.453 466.663 658.453 466.663 658.453 466.663 657.281 464.904 654.938 463.731 652.594 463.731 643.219 463.731 643.219 463.731 643.219 463.731 643.219 459.038 643.219 459.038 643.219 459.038 643.219 454.933 640.289 452 636.188 452 601.031 452 601.031 452 601.031 452 596.93 452 594 454.933 594 459.038 594 484.846 594 484.846 594 484.846 594 488.952 596.93 491.885 601.031 491.885 601.031 491.885 601.031 491.885 601.031 491.885 601.031 498.923 601.031 498.923 601.031 498.923 601.031 503.029 603.961 505.962 608.062 505.962 610.992 505.962 610.992 505.962 610.992 505.962 611.578 510.067 615.68 513 619.781 513 623.883 513 627.984 510.067 628.57 505.962 641.461 505.962 641.461 505.962 641.461 505.962 642.047 510.067 646.148 513 650.25 513 654.352 513 658.453 510.067 659.039 505.962 661.969 505.962 661.969 505.962 661.969 505.962 666.07 505.962 669 503.029 669 498.923 669 484.846 669 484.846 669 484.846 669 483.673 668.414 481.913 667.828 480.74ZM601.031 487.192C599.859 487.192 598.688 486.019 598.688 484.846 598.688 459.038 598.688 459.038 598.688 459.038 598.688 457.865 599.859 456.692 601.031 456.692 636.188 456.692 636.188 456.692 636.188 456.692 637.359 456.692 638.531 457.865 638.531 459.038 638.531 463.731 638.531 463.731 638.531 463.731 638.531 468.423 638.531 468.423 638.531 468.423 638.531 484.846 638.531 484.846 638.531 484.846 638.531 486.019 637.359 487.192 636.188 487.192L601.031 487.192ZM619.781 508.308C617.438 508.308 615.094 505.962 615.094 503.615 615.094 501.269 617.438 498.923 619.781 498.923 622.125 498.923 624.469 501.269 624.469 503.615 624.469 505.962 622.125 508.308 619.781 508.308ZM650.25 508.308C647.906 508.308 645.562 505.962 645.562 503.615 645.562 501.269 647.906 498.923 650.25 498.923 652.594 498.923 654.938 501.269 654.938 503.615 654.938 505.962 652.594 508.308 650.25 508.308ZM664.312 498.923C664.312 500.096 663.141 501.269 661.969 501.269 659.039 501.269 659.039 501.269 659.039 501.269 658.453 497.163 654.352 494.231 650.25 494.231 646.148 494.231 642.047 497.163 641.461 501.269 628.57 501.269 628.57 501.269 628.57 501.269 627.984 497.163 623.883 494.231 619.781 494.231 615.68 494.231 611.578 497.163 610.992 501.269 608.062 501.269 608.062 501.269 608.062 501.269 606.891 501.269 605.719 500.096 605.719 498.923 605.719 491.885 605.719 491.885 605.719 491.885 636.188 491.885 636.188 491.885 636.188 491.885 640.289 491.885 643.219 488.952 643.219 484.846 643.219 468.423 643.219 468.423 643.219 468.423 652.594 468.423 652.594 468.423 652.594 468.423 653.18 468.423 654.352 469.01 654.352 469.596 663.727 483.673 663.727 483.673 663.727 483.673 664.312 483.673 664.312 484.26 664.312 484.846L664.312 498.923Z" fill="#D6D8EF" fill-rule="evenodd"/><text fill="#9E9A9A" font-family="Microsoft YaHei,Microsoft YaHei_MSFontService,Arial" font-weight="400" font-size="23.3333" transform="translate(1237.75 606)">连续测风，以获取完整</text><text fill="#9E9A9A" font-family="Microsoft YaHei,Microsoft YaHei_MSFontService,Arial" font-weight="400" font-size="23.3333" transform="translate(1237.75 648)">的季节变化数据，以便</text><text fill="#9E9A9A" font-family="Microsoft YaHei,Microsoft YaHei_MSFontService,Arial" font-weight="400" font-size="23.3333" transform="translate(1272.75 690)">不断调整优化。</text><text fill="#6C6969" font-family="Microsoft YaHei,Microsoft YaHei_MSFontService,Arial" font-weight="700" font-size="23.3333" transform="translate(1275.71 541)">数据收集周期</text><text fill="#9E9A9A" font-family="Microsoft YaHei,Microsoft YaHei_MSFontService,Arial" font-weight="400" font-size="23.3333" transform="translate(867.945 583)">使用</text><text fill="#9E9A9A" font-family="Calibri,Calibri_MSFontService,Arial" font-weight="400" font-size="23.3333" transform="translate(914.612 583)">CFD</text><text fill="#9E9A9A" font-family="Microsoft YaHei,Microsoft YaHei_MSFontService,Arial" font-weight="400" font-size="23.3333" transform="translate(952.112 583)">计算流体动力学</text><text fill="#9E9A9A" font-family="Microsoft YaHei,Microsoft YaHei_MSFontService,Arial" font-weight="400" font-size="23.3333" transform="translate(875.028 625)">软件，模拟复杂地形下</text><text fill="#9E9A9A" font-family="Microsoft YaHei,Microsoft YaHei_MSFontService,Arial" font-weight="400" font-size="23.3333" transform="translate(875.028 667)">的风流场，精准预测每</text><text fill="#9E9A9A" font-family="Microsoft YaHei,Microsoft YaHei_MSFontService,Arial" font-weight="400" font-size="23.3333" transform="translate(875.028 709)">一处潜在机位的风速、</text><text fill="#9E9A9A" font-family="Microsoft YaHei,Microsoft YaHei_MSFontService,Arial" font-weight="400" font-size="23.3333" transform="translate(875.028 751)">湍流强度和风向分布。</text><text fill="#6C6969" font-family="Microsoft YaHei,Microsoft YaHei_MSFontService,Arial" font-weight="700" font-size="23.3333" transform="translate(919.153 545)">精准的微观选址</text><text fill="#9E9A9A" font-family="Microsoft YaHei,Microsoft YaHei_MSFontService,Arial" font-weight="400" font-size="23.3333" transform="translate(494.034 606)">在潜力区树立</text><text fill="#9E9A9A" font-family="Calibri,Calibri_MSFontService,Arial" font-weight="400" font-size="23.3333" transform="translate(634.034 606)">80</text><text fill="#9E9A9A" font-family="Microsoft YaHei,Microsoft YaHei_MSFontService,Arial" font-weight="400" font-size="23.3333" transform="translate(657.784 606)">米至</text><text fill="#9E9A9A" font-family="Calibri,Calibri_MSFontService,Arial" font-weight="400" font-size="23.3333" transform="translate(704.451 606)">100</text><text fill="#9E9A9A" font-family="Microsoft YaHei,Microsoft YaHei_MSFontService,Arial" font-weight="400" font-size="23.3333" transform="translate(500.384 648)">米以上的测风塔，塔上</text><text fill="#9E9A9A" font-family="Microsoft YaHei,Microsoft YaHei_MSFontService,Arial" font-weight="400" font-size="23.3333" transform="translate(493.201 690)">安装不同高度的风速仪、</text><text fill="#9E9A9A" font-family="Microsoft YaHei,Microsoft YaHei_MSFontService,Arial" font-weight="400" font-size="23.3333" transform="translate(500.384 732)">风向标、温度传感器。</text><text fill="#6C6969" font-family="Microsoft YaHei,Microsoft YaHei_MSFontService,Arial" font-weight="700" font-size="23.3333" transform="translate(565.075 560)">设立测风塔</text><text fill="#6C6969" font-family="Microsoft YaHei,Microsoft YaHei_MSFontService,Arial" font-weight="700" font-size="46.6667" transform="translate(434.833 133)">前期资源评估与微观选址</text></g></svg>